<?xml version="1.0" encoding="UTF-8" standalone="no"?>
<svg
   xmlns:dc="http://purl.org/dc/elements/1.1/"
   xmlns:cc="http://creativecommons.org/ns#"
   xmlns:rdf="http://www.w3.org/1999/02/22-rdf-syntax-ns#"
   xmlns:svg="http://www.w3.org/2000/svg"
   xmlns="http://www.w3.org/2000/svg"
   xmlns:xlink="http://www.w3.org/1999/xlink"
   xmlns:sodipodi="http://sodipodi.sourceforge.net/DTD/sodipodi-0.dtd"
   xmlns:inkscape="http://www.inkscape.org/namespaces/inkscape"
   width="294.255"
   height="393.812"
   viewBox="0 0 77.855 104.196"
   version="1.1"
   id="svg500"
   sodipodi:docname="Seal of Pemalang Regency (1).svg"
   inkscape:version="1.0.1 (3bc2e813f5, 2020-09-07)">
  <metadata
     id="metadata504">
    <rdf:RDF>
      <cc:Work
         rdf:about="">
        <dc:format>image/svg+xml</dc:format>
        <dc:type
           rdf:resource="http://purl.org/dc/dcmitype/StillImage" />
      </cc:Work>
    </rdf:RDF>
  </metadata>
  <sodipodi:namedview
     pagecolor="#ffffff"
     bordercolor="#666666"
     borderopacity="1"
     objecttolerance="10"
     gridtolerance="10"
     guidetolerance="10"
     inkscape:pageopacity="0"
     inkscape:pageshadow="2"
     inkscape:window-width="1366"
     inkscape:window-height="705"
     id="namedview502"
     showgrid="false"
     inkscape:zoom="1.285081"
     inkscape:cx="268.63582"
     inkscape:cy="209.59353"
     inkscape:window-x="-8"
     inkscape:window-y="-8"
     inkscape:window-maximized="1"
     inkscape:current-layer="svg500"
     inkscape:snap-bbox="true"
     inkscape:bbox-paths="true"
     inkscape:bbox-nodes="true"
     inkscape:snap-bbox-edge-midpoints="true"
     inkscape:snap-bbox-midpoints="true"
     inkscape:object-paths="true"
     inkscape:snap-intersection-paths="true"
     inkscape:snap-smooth-nodes="true"
     inkscape:snap-midpoints="true"
     inkscape:snap-object-midpoints="true"
     inkscape:snap-center="true"
     inkscape:snap-global="false"
     inkscape:document-rotation="0" />
  <style
     id="style2"><![CDATA[.B{stroke-width:.265}.C{opacity:.998}.D{fill:#fff}.E{stroke:#a1a1a1}.F{fill:#009b4c}.G{fill:#d3d3d3}.H{stroke:#006b34}.I{opacity:.999}.J{fill-rule:evenodd}.K{fill:#ffeba3}.L{fill:#f5c742}.M{stroke-linejoin:round}.N{stroke-width:.216}.O{stroke-width:.329}]]></style>
  <defs
     id="defs52">
    <linearGradient
       id="linearGradient1673"
       x1="0"
       y1="0"
       x2="77.855003"
       y2="0"
       gradientUnits="userSpaceOnUse"
       spreadMethod="pad">
      <stop
         offset="0"
         stop-color="#fff"
         id="stop1669" />
      <stop
         offset="1"
         stop-color="#f4f4f4"
         id="stop1671"
         style="stop-color:#cccccc;stop-opacity:1" />
    </linearGradient>
    <linearGradient
       id="A"
       x1="0"
       y1="0"
       x2="77.855003"
       y2="0"
       gradientUnits="userSpaceOnUse"
       spreadMethod="pad">
      <stop
         offset="0"
         stop-color="#fff"
         id="stop4" />
      <stop
         offset="1"
         stop-color="#f4f4f4"
         id="stop6" />
    </linearGradient>
    <linearGradient
       id="B"
       x1="212.373"
       y1="101.07887"
       x2="213.56599"
       y2="101.07887"
       gradientUnits="userSpaceOnUse"
       spreadMethod="pad">
      <stop
         stop-color="#ad8900"
         offset="0"
         id="stop9" />
      <stop
         stop-color="#ffd631"
         offset=".382"
         id="stop11" />
      <stop
         stop-color="#fff9c7"
         offset=".505"
         id="stop13" />
      <stop
         stop-color="#ffd631"
         offset=".613"
         id="stop15" />
      <stop
         stop-color="#ad8900"
         offset="1"
         id="stop17" />
    </linearGradient>
    <linearGradient
       id="C"
       x1="100.196"
       y1="102.585"
       x2="100.196"
       y2="113.864"
       xlink:href="#V"
       gradientTransform="translate(-66.072,-66.691)">
      <stop
         offset="0"
         stop-color="#ff9000"
         id="stop20" />
      <stop
         offset="1"
         stop-color="red"
         id="stop22" />
    </linearGradient>
    <linearGradient
       xlink:href="#linearGradient1673"
       id="D"
       x1="72.145721"
       y1="169.4632"
       x2="73.551567"
       y2="170.29291"
       gradientTransform="scale(1.1942718,0.83733033)"
       gradientUnits="userSpaceOnUse" />
    <linearGradient
       xlink:href="#linearGradient1673"
       id="E"
       x1="103.55904"
       y1="169.04836"
       x2="102.15319"
       y2="169.80891"
       gradientTransform="matrix(1.1942718,0,0,0.83733033,-66.072,-66.691)"
       gradientUnits="userSpaceOnUse" />
    <linearGradient
       id="F"
       x1="147.128"
       y1="285.457"
       x2="147.128"
       y2="262.737"
       xlink:href="#V"
       gradientTransform="matrix(0.264583,0,0,0.264583,3.42e-4,2.47e-4)">
      <stop
         offset="0"
         stop-color="#00a2e9"
         id="stop27" />
      <stop
         offset="1"
         stop-color="#23bbff"
         id="stop29" />
    </linearGradient>
    <radialGradient
       id="G"
       cx="545.182"
       cy="247.348"
       fx="545.182"
       fy="247.348"
       r="102.202"
       gradientTransform="matrix(0.26458333,0,0,0.13776636,-105.74423,28.062836)"
       xlink:href="#V">
      <stop
         offset="0"
         stop-color="#adff2f"
         id="stop32" />
      <stop
         offset="1"
         stop-color="#009b4c"
         id="stop34" />
    </radialGradient>
    <path
       id="H"
       d="M85.543 123.388c11.179-.435 17.556 5.231 18.143 8.221V83.228z" />
    <path
       id="I"
       d="M102.735 87.646l-15.734 34.828c5.033.049 9.124 1.252 12.055 2.912 1.544.875 2.753 1.837 3.68 2.82z" />
    <path
       id="J"
       d="M101.399 93.846l-12.357 27.352c4.337.32 7.947 1.481 10.674 3.025.692.392 1.094.855 1.684 1.271z" />
    <path
       id="K"
       d="M99.928 100.672l-8.721 19.301c3.403.484 6.339 1.457 8.721 2.73z" />
    <path
       id="L"
       d="M209.6 112.644c0 .121.267.219.597.219s.596-.098.596-.219" />
    <path
       id="M"
       d="M75.526 136.948c1.254.314 1.969 1.16 2.294 2.38l-2.294-2.38z" />
    <path
       id="N"
       d="M78.479 102.36c-.235 1.271-1.035 2.037-2.233 2.438l2.233-2.438z" />
    <path
       id="O"
       d="M76.629 113.046c1.177.535 1.728 1.495 1.828 2.755l-1.828-2.755z" />
    <path
       id="P"
       d="M78.119 124.242c1.239.368 1.916 1.245 2.188 2.479l-2.188-2.479z" />
    <path
       id="Q"
       d="M84.228 129.975c-.473.65-.969 1.262-.994 2.616.582-.767.975-1.613.994-2.616z" />
    <path
       id="R"
       d="M82.747 124.124c-.556.58-1.131 1.119-1.339 2.457.681-.681 1.184-1.466 1.339-2.457z" />
    <path
       id="S"
       d="M80.487 110.198c-.485.422-.983.811-1.216 1.838.592-.494 1.043-1.077 1.216-1.838z" />
    <path
       id="T"
       d="M231.813 130.669c-.247-.676-1.982.12-1.754 1.637l1.637 2.456 2.923-.284c.741-.423 1.341-2.222-.017-2.606.167-.76-.453-3.205-2.79-1.203z" />
    <path
       id="U"
       d="M233.149 130.836c-.643.404-1.373.55-2.056.518-.774.736.484 1.81 1.248 1.193.678-.523 1.501-.336 1.619.547.958.352-.004-.89-.084-1.314-.049-.49-.143-.863-.726-.944z" />
    <linearGradient
       id="V"
       gradientUnits="userSpaceOnUse" />
  </defs>
  <path
     d="m 2.021,2.046 h 36.882 36.882 v 57.473 c -0.863,14.308 -7.032,24.779 -14.533,31.792 -7.487,7 -16.342,10.506 -22.349,10.832 C 32.896,101.816 24.04,98.311 16.554,91.311 9.054,84.298 2.884,73.827 2.021,59.519 Z"
     fill="#fff000"
     id="path54" />
  <path
     d="M 0.252,0.277 V 1.161 59.58 l 0.002,0.026 c 0.886,14.774 7.298,25.71 15.092,32.998 7.794,7.288 16.921,10.972 23.512,11.315 l 0.045,0.002 0.047,-0.002 C 45.541,103.576 54.667,99.892 62.461,92.604 70.255,85.316 76.667,74.381 77.553,59.606 L 77.555,59.58 V 0.277 H 38.904 Z m 1.769,1.769 h 36.882 36.882 v 57.473 c -0.863,14.308 -7.032,24.779 -14.533,31.792 -7.487,7 -16.343,10.506 -22.35,10.832 C 32.895,101.816 24.039,98.311 16.553,91.311 9.053,84.298 2.883,73.827 2.02,59.519 Z"
     fill="#e62129"
     stroke="#a51319"
     stroke-width="0.553"
     id="path56" />
  <path
     d="m 9.728,44.601 6.614,27.895 h 22.16 24.9 L 68.127,44.601 H 38.502 Z"
     opacity="0.996"
     fill="url(#G)"
     id="path58"
     style="fill:url(#G);" />
  <g
     id="g1687">
    <path
       d="m 33.369,85.965 c -0.405,-0.189 -0.608,-0.501 -0.61,-0.937 -10e-4,-0.206 0.018,-0.288 0.088,-0.391 0.165,-0.242 0.275,-0.294 0.654,-0.309 0.189,-0.007 0.405,0.003 0.48,0.024 l 0.138,0.037 -0.14,0.06 c -0.151,0.065 -0.353,0.277 -0.353,0.372 0,0.186 0.19,0.29 0.529,0.29 0.234,0 0.458,-0.114 0.458,-0.233 0,-0.042 0.045,-0.13 0.1,-0.195 0.16,-0.19 0.509,-0.238 1.011,-0.14 0.093,0.018 0.11,0.004 0.153,-0.13 0.082,-0.252 0.23,-0.52 0.382,-0.687 0.24,-0.265 0.655,-0.425 0.951,-0.366 l 0.12,0.024 -0.134,0.138 c -0.174,0.179 -0.273,0.437 -0.239,0.62 0.021,0.11 0.062,0.16 0.198,0.24 0.239,0.14 0.498,0.162 0.931,0.078 l 0.36,-0.07 -0.025,-0.142 a 2.54,2.54 0 0 0 -0.414,-0.845 l -0.128,-0.146 0.367,-0.523 c 0.694,-0.989 0.666,-0.956 0.745,-0.872 0.038,0.04 0.278,0.371 0.532,0.734 l 0.463,0.661 -0.128,0.146 a 2.54,2.54 0 0 0 -0.414,0.845 l -0.025,0.142 0.36,0.07 c 0.433,0.084 0.692,0.062 0.931,-0.078 0.136,-0.08 0.177,-0.13 0.198,-0.24 0.034,-0.183 -0.065,-0.441 -0.239,-0.62 l -0.134,-0.138 0.12,-0.024 c 0.296,-0.059 0.712,0.101 0.951,0.366 0.152,0.168 0.3,0.436 0.382,0.687 0.043,0.133 0.06,0.148 0.153,0.13 0.501,-0.098 0.851,-0.05 1.011,0.14 0.055,0.065 0.1,0.153 0.1,0.195 0,0.119 0.224,0.233 0.458,0.233 0.339,0 0.529,-0.104 0.529,-0.29 0,-0.095 -0.202,-0.307 -0.353,-0.372 l -0.14,-0.06 0.138,-0.037 c 0.076,-0.02 0.292,-0.031 0.48,-0.024 0.379,0.015 0.49,0.067 0.654,0.309 0.07,0.103 0.089,0.185 0.088,0.391 a 0.92,0.92 0 0 1 -0.278,0.711 c -0.4,0.4 -1.175,0.435 -1.346,0.062 l -0.045,-0.099 h -4.505 -4.505 l -0.045,0.099 c -0.12,0.263 -0.625,0.344 -1.014,0.163 z M 53.16,88.52 c -0.73,-0.122 -1.476,-0.436 -2.667,-1.12 -1.182,-0.679 -1.347,-0.734 -2.117,-0.7 -0.533,0.023 -1.018,0.132 -1.523,0.34 l -0.286,0.118 0.117,-0.146 c 0.117,-0.146 0.435,-0.435 0.731,-0.665 0.549,-0.426 1.339,-0.724 1.922,-0.724 0.396,0 0.996,0.132 2.418,0.533 1.241,0.35 1.489,0.394 2.19,0.394 0.542,0 0.643,-0.011 0.888,-0.094 0.782,-0.267 1.653,-0.86 2.759,-1.88 0.273,-0.251 0.496,-0.434 0.496,-0.405 0,0.111 -0.237,0.976 -0.354,1.294 a 7.27,7.27 0 0 1 -0.676,1.361 c -0.286,0.437 -0.884,1.025 -1.279,1.257 -0.733,0.43 -1.695,0.59 -2.619,0.435 z m -29.786,0.018 c -1.599,-0.229 -2.812,-1.515 -3.418,-3.624 l -0.159,-0.628 -0.029,-0.174 0.5,0.461 c 1.11,1.022 2.001,1.63 2.768,1.887 0.24,0.081 0.346,0.091 0.903,0.089 0.707,-0.002 0.961,-0.049 2.249,-0.414 1.323,-0.375 1.949,-0.512 2.339,-0.512 0.583,0 1.373,0.297 1.922,0.724 0.293,0.228 0.613,0.518 0.728,0.66 l 0.113,0.141 -0.358,-0.135 c -0.584,-0.219 -0.914,-0.291 -1.443,-0.315 -0.77,-0.034 -0.935,0.02 -2.117,0.7 -0.872,0.501 -1.374,0.743 -1.914,0.923 -0.706,0.236 -1.422,0.31 -2.084,0.215 z m 31.479,1.416 a 1.9,1.9 0 0 1 0.305,-0.448 c 0.009,0.009 -0.011,0.067 -0.045,0.129 -0.073,0.133 -0.26,0.362 -0.26,0.319 z"
       class="I"
       id="path150" />
    <path
       d="m 22.889,89.834 c -0.12,-0.151 -0.205,-0.304 -0.182,-0.328 0.009,-0.009 0.083,0.083 0.164,0.204 0.163,0.246 0.174,0.319 0.018,0.123 z m 28.393,2.445 c -0.374,-0.139 -0.574,-0.3 -1.479,-1.188 l -2.346,-2.108 a 2.03,2.03 0 0 0 -0.468,-0.14 c -0.379,-0.064 -0.239,-0.1 0.39,-0.101 0.997,-0.001 1.627,0.226 2.655,0.959 1.156,0.824 1.624,1.086 2.137,1.195 0.735,0.156 1.592,-0.085 2.355,-0.662 l 0.251,-0.19 -0.124,0.18 c -0.477,0.693 -1.356,1.611 -1.791,1.869 a 1.65,1.65 0 0 1 -0.989,0.275 C 51.604,92.367 51.46,92.346 51.281,92.279 Z m -25.848,0.02 c -0.35,-0.121 -0.646,-0.328 -1.108,-0.772 -0.365,-0.351 -1.071,-1.186 -1.207,-1.427 -0.017,-0.031 0.082,0.03 0.22,0.134 0.763,0.577 1.62,0.819 2.355,0.662 0.513,-0.109 0.981,-0.371 2.137,-1.195 1.028,-0.733 1.658,-0.96 2.655,-0.959 0.63,10e-4 0.77,0.037 0.388,0.101 a 2.1,2.1 0 0 0 -0.459,0.132 c -0.218,0.106 -1.331,1.107 -2.412,2.17 -0.862,0.847 -1.074,1.014 -1.459,1.147 a 2.08,2.08 0 0 1 -1.11,0.007 z m 23.027,2.93 c -0.626,-0.136 -1.108,-0.516 -1.38,-1.09 -0.187,-0.395 -0.257,-0.729 -0.316,-1.512 -0.086,-1.131 -0.229,-1.744 -0.506,-2.173 a 2.45,2.45 0 0 0 -0.715,-0.691 l -0.14,-0.077 0.178,0.024 c 0.313,0.043 0.81,0.236 1.096,0.426 0.551,0.366 0.915,0.869 1.484,2.047 0.501,1.038 0.721,1.312 1.192,1.488 0.442,0.165 1.037,0.193 2.037,0.095 0.178,-0.017 0.266,-0.012 0.266,0.016 0,0.066 -0.591,0.676 -0.809,0.835 -0.758,0.553 -1.628,0.775 -2.387,0.611 z m -20.063,0.004 c -0.484,-0.09 -0.939,-0.292 -1.381,-0.614 -0.218,-0.159 -0.809,-0.769 -0.809,-0.835 0,-0.028 0.088,-0.033 0.266,-0.016 1.028,0.1 1.626,0.069 2.068,-0.11 0.459,-0.185 0.663,-0.445 1.161,-1.474 0.57,-1.178 0.934,-1.68 1.485,-2.047 a 3.15,3.15 0 0 1 1.096,-0.426 l 0.178,-0.024 -0.14,0.077 a 2.44,2.44 0 0 0 -0.712,0.687 c -0.283,0.438 -0.422,1.031 -0.509,2.178 -0.059,0.783 -0.129,1.117 -0.316,1.512 -0.414,0.875 -1.321,1.29 -2.386,1.093 z M 38.676,95.68 A 16.74,16.74 0 0 0 36.671,93.349 C 36.188,92.884 35.99,92.638 35.812,92.285 A 2.14,2.14 0 0 1 35.798,90.3 l 0.352,-0.67 c 0.387,-0.714 0.44,-1.07 0.186,-1.259 -0.162,-0.121 -0.498,-0.116 -0.631,0.009 -0.101,0.095 -0.185,0.346 -0.185,0.557 0,0.109 -0.012,0.121 -0.124,0.121 -0.54,0 -0.912,-0.456 -0.919,-1.124 -0.003,-0.338 0.086,-0.534 0.329,-0.72 0.258,-0.198 0.53,-0.26 1.046,-0.238 a 2.33,2.33 0 0 1 1.26,0.375 c 0.273,0.159 0.337,0.181 0.536,0.179 0.312,-0.003 0.613,-0.158 0.986,-0.509 l 0.299,-0.281 0.298,0.281 c 0.372,0.351 0.672,0.506 0.985,0.509 0.199,0.002 0.263,-0.019 0.536,-0.179 a 2.33,2.33 0 0 1 1.26,-0.375 c 0.516,-0.022 0.788,0.04 1.046,0.238 0.242,0.186 0.332,0.382 0.329,0.72 -0.006,0.667 -0.38,1.124 -0.919,1.124 -0.112,0 -0.124,-0.012 -0.124,-0.121 0,-0.206 -0.083,-0.461 -0.179,-0.551 -0.205,-0.192 -0.645,-0.113 -0.764,0.138 -0.108,0.227 0.076,0.743 0.551,1.547 0.332,0.562 0.407,0.792 0.409,1.255 0.001,0.322 -0.015,0.436 -0.09,0.624 -0.165,0.414 -0.451,0.779 -1.2,1.53 l -1.035,1.102 -1.045,1.373 c -0.058,0.089 -0.063,0.085 -0.316,-0.275 z"
       class="I"
       id="path152" />
  </g>
  <g
     id="g1799">
    <path
       d="m 35.531,7.15 2.032,1.498 -0.001,0.003"
       class="K"
       id="path154" />
    <path
       d="m 39.797,7.146 -0.87,-2.483 -0.004,0.012 -0.861,2.468 -0.002,0.004 -2.542,-0.005 0.013,0.009 2.031,1.501 -0.742,2.496 0.016,-0.011 2.087,-1.501 0.004,-0.003 2.109,1.424 -0.002,-0.005 -0.776,-2.427 h 10e-4 l 2.075,-1.481 0.004,-0.003 -2.535,0.005 z"
       class="D"
       id="path156" />
    <path
       fill="#a07843"
       d="M 36.82,11.298 A 0.15,0.15 0 0 1 36.676,11.104 L 37.388,8.709 35.43,7.261 A 0.15,0.15 0 0 1 35.376,7.093 c 0.02,-0.062 0.078,-0.104 0.143,-0.104 v 0 l 2.435,0.005 0.831,-2.382 a 0.15,0.15 0 0 1 0.142,-0.101 v 0 c 0.064,0 0.121,0.04 0.142,0.101 l 0.835,2.382 2.434,-0.005 v 0 a 0.15,0.15 0 0 1 0.088,0.273 l -1.99,1.42 0.737,2.307 a 0.15,0.15 0 0 1 -0.136,0.216 0.15,0.15 0 0 1 -0.04,-0.005 c -0.016,-0.004 -0.032,-0.011 -0.046,-0.02 l -2.022,-1.365 -2.022,1.454 c -0.026,0.019 -0.056,0.028 -0.087,0.028 z M 35.977,7.292 37.652,8.53 a 0.15,0.15 0 0 1 0.055,0.164 l -0.616,2.073 1.745,-1.255 C 38.887,9.475 38.96,9.471 39.012,9.507 l 1.749,1.18 -0.645,-2.017 a 0.15,0.15 0 0 1 0.055,-0.168 l 1.696,-1.211 -2.063,0.005 v 0 c -0.064,0 -0.127,-0.04 -0.148,-0.101 L 38.928,5.12 38.205,7.193 c -0.021,0.061 -0.08,0.105 -0.144,0.105 v 0 L 35.977,7.294 Z"
       id="path158" />
    <path
       d="m 38.923,4.675 v 3.533 l 0.88,-1.061 h -0.006 l -0.87,-2.483 z"
       class="L"
       id="path160" />
    <g
       class="K"
       id="g166"
       transform="translate(-66.072,-66.691)">
      <path
         d="m 103.635,75.339 -0.001,0.003 1.361,-0.441 v -0.003 l -3.392,-1.058 z"
         id="path162" />
      <path
         d="m 104.995,74.899 v -3.533 l -0.861,2.468 0.859,1.065 z"
         id="path164" />
    </g>
    <path
       d="M 35.518,7.141 35.531,7.15 38.921,8.207 38.062,7.142 38.06,7.146 Z"
       class="L"
       id="path168" />
    <path
       d="M 42.338,7.141 39.803,7.146 38.925,8.205 42.334,7.143 Z"
       class="K"
       id="path170" />
    <path
       d="m 38.923,8.208 1.336,0.417 2.075,-1.481 -3.409,1.062 z"
       class="L"
       id="path172" />
    <path
       d="m 38.923,8.208 v 0.003 l 2.111,2.841 -0.776,-2.427 h 10e-4 z"
       class="K"
       id="path174" />
    <g
       class="L"
       id="g180"
       transform="translate(-66.072,-66.691)">
      <path
         d="m 104.999,76.324 2.109,1.424 -0.002,-0.005 -2.111,-2.841 v 1.425 z"
         id="path176" />
      <path
         d="m 103.634,75.343 -0.742,2.496 0.016,-0.011 2.081,-2.924 z"
         id="path178" />
    </g>
    <path
       d="M 36.836,11.137 38.923,9.636 V 8.211 l -0.007,0.002 z"
       class="K"
       id="path182" />
  </g>
  <g
     id="g1940">
    <g
       id="g1805">
      <g
         class="D"
         id="g64"
         transform="translate(-66.072,-66.691)">
        <path
           d="m 97.61,88.6 -17.583,16.788 -1.912,5.904 H 105 131.884 L 129.972,105.388 112.39,88.6 H 105 Z"
           id="path60" />
        <path
           d="m 80.027,105.388 -1.911,5.904 H 105 V 88.6 h -7.39 z"
           id="path62" />
      </g>
      <path
         d="m 38.928,10.951 c -1.815,1.507 -7.442,2.692 -5.463,4.51 -1.41,0.454 -0.663,2.68 -0.174,2.644 -6.707,0.391 -10.058,3.584 -14.276,9.684 -2.082,3.011 -7.093,1.204 -6.481,3.073 0.337,1.029 2.161,0.346 3.174,-0.017 1.997,-0.715 1.934,0.547 1.587,0.902 -2.611,2.671 -2.497,4.707 -3.341,6.949 6.39,-0.936 10.656,-6.914 15.685,-10.873 2.402,-1.891 4.995,-5.387 9.288,-5.915 4.293,0.528 6.885,4.024 9.287,5.915 5.029,3.959 9.295,9.937 15.685,10.873 -0.844,-2.242 -0.73,-4.278 -3.341,-6.949 -0.347,-0.355 -0.41,-1.617 1.587,-0.902 1.013,0.363 2.837,1.046 3.174,0.017 0.612,-1.869 -4.399,-0.062 -6.481,-3.073 -4.218,-6.1 -7.569,-9.293 -14.276,-9.684 0.489,0.036 1.236,-2.19 -0.174,-2.644 1.979,-1.818 -3.647,-3.003 -5.462,-4.51 z"
         fill="#00a2e9"
         stroke="#008cca"
         class="B"
         id="path148" />
    </g>
    <path
       d="M 63.723,43.699 V 39.907 C 56.672,38.874 52.283,32.579 47.459,28.782 44.856,26.733 42.539,23.692 38.928,23.167 35.317,23.692 33,26.733 30.397,28.782 25.574,32.579 21.185,38.874 14.133,39.907 v 3.792 z"
       fill="#00a2e9"
       stroke="#008cca"
       id="path184"
       style="stroke-width:0.265;" />
    <path
       d="m 25.227,37.184 v 3.024 H 22.77 v -1.89 h -2.883 v 3.942 h -2.646 v -1.439 h -3.108 v 2.877 h 24.795 16.158 8.637 v -2.877 h -3.108 v 1.439 h -2.646 v -3.942 h -2.883 v 1.89 h -2.457 v -3.024 h -3.78 v 3.024 h -9.921 -9.922 v -3.024 z"
       fill="#fff000"
       stroke="#000000"
       class="C J M"
       id="path186"
       style="stroke-width:0.265;" />
  </g>
  <g
     id="g1931">
    <g
       id="g1919">
      <path
         id="use188"
         d="m 19.471,56.697 c 11.179,-0.435 17.556,5.231 18.143,8.221 V 16.537 Z"
         style="fill:#a0d9f6;stroke:#47b5ee;stroke-width:0.265;" />
      <path
         id="use192"
         d="M 36.663,20.955 20.929,55.783 c 5.033,0.049 9.124,1.252 12.055,2.912 1.544,0.875 2.753,1.837 3.68,2.82 z"
         style="fill:#bbe4f9;" />
      <path
         id="use194"
         d="M 35.327,27.155 22.97,54.507 c 4.337,0.32 7.947,1.481 10.674,3.025 0.692,0.392 1.094,0.855 1.684,1.271 z"
         style="fill:#d0ecfa;" />
      <path
         id="use196"
         d="m 33.856,33.981 -8.721,19.301 c 3.403,0.484 6.339,1.457 8.721,2.73 z"
         style="fill:#ffffff;" />
    </g>
    <g
       id="g1910">
      <path
         id="use198"
         d="m 58.38549,56.830635 c -11.179,-0.435 -17.556,5.231 -18.143,8.221 v -48.381 z"
         style="fill:#a0d9f6;stroke:#47b5ee;stroke-width:0.265;" />
      <path
         id="use200"
         d="m 41.19349,21.088635 15.734,34.828 c -5.033,0.049 -9.124,1.252 -12.055,2.912 -1.544,0.875 -2.753,1.837 -3.68,2.82 z"
         style="fill:#bbe4f9;" />
      <path
         id="use202"
         d="m 42.52949,27.288635 12.357,27.352 c -4.337,0.32 -7.947,1.481 -10.674,3.025 -0.692,0.392 -1.094,0.855 -1.684,1.271 z"
         style="fill:#d0ecfa;" />
      <path
         id="use204"
         d="m 44.00049,34.114635 8.721,19.301 c -3.403,0.484 -6.339,1.457 -8.721,2.73 z"
         style="fill:#ffffff;" />
    </g>
  </g>
  <path
     d="m 38.928,36.95 c -7.583,0 -10.816,7.65 -13.03,11.759 -1.454,0.925 -2.44,3.856 -1.67,6.147 0.003,-1.403 2.775,-3.861 3.474,-0.067 2.136,-4.557 4.612,-1.859 4.477,0.468 1.595,-5.11 4.549,-1.703 4.21,-0.134 -0.043,1.956 0.705,4.017 -0.534,5.813 h 3.073 3.073 c -1.239,-1.796 -0.491,-3.857 -0.534,-5.813 -0.339,-1.569 2.615,-4.976 4.21,0.134 -0.135,-2.327 2.341,-5.025 4.477,-0.468 0.699,-3.795 3.471,-1.337 3.475,0.067 0.77,-2.291 -0.217,-5.222 -1.671,-6.147 C 49.745,44.6 46.512,36.95 38.929,36.95 Z"
     stroke="#004f27"
     class="B F"
     id="path208" />
  <path
     d="m 41.066,49.166 c 3.231,1.512 4.239,-0.126 5.322,0.167 1.572,0.477 3.566,1.799 4.951,1.195 0.712,-0.335 1.372,-0.838 1.133,-1.868 -0.718,-3.084 -2.597,-2.571 -2.257,-7.258 -0.32,0.117 -0.574,0.257 -0.934,0.624 -0.416,-1.252 -0.316,-2.586 -0.884,-3.544 -0.18,0.543 -0.216,0.884 -0.467,1.292 0,-0.696 -0.827,-2.564 -1.43,-3.59 0.006,0.332 -0.091,0.773 -0.3,1.132 -0.624,-2.153 -2.277,-1.318 -1.821,-4.775 -1.061,1.379 -1.977,3.596 -0.946,4.911 0.641,1.578 0.316,4.009 0.983,5.376 0.3,0.616 0.504,1.375 1.165,1.685 0.777,0.365 0.153,1.053 -0.512,0.745 -0.793,-0.367 -1.637,-0.072 -2.248,0.543 -0.527,0.53 -1.321,0.505 -1.896,-0.043 -0.524,-0.5 -1.177,-1.29 -1.997,-1.29 -0.82,0 -1.473,0.789 -1.997,1.29 -0.575,0.549 -1.369,0.574 -1.896,0.043 -0.611,-0.615 -1.455,-0.91 -2.248,-0.543 -0.665,0.308 -1.289,-0.38 -0.512,-0.745 0.66,-0.31 0.864,-1.07 1.165,-1.685 0.667,-1.367 0.342,-3.797 0.983,-5.376 1.031,-1.315 0.115,-3.533 -0.946,-4.911 0.457,3.457 -1.197,2.622 -1.821,4.775 -0.208,-0.358 -0.306,-0.8 -0.3,-1.132 -0.603,1.026 -1.43,2.894 -1.43,3.59 -0.251,-0.408 -0.287,-0.749 -0.467,-1.292 -0.568,0.959 -0.468,2.292 -0.884,3.544 -0.359,-0.367 -0.614,-0.508 -0.934,-0.624 0.34,4.687 -1.539,4.174 -2.257,7.258 -0.24,1.029 0.421,1.532 1.133,1.868 1.385,0.605 3.379,-0.718 4.952,-1.195 1.083,-0.293 2.09,1.345 5.321,-0.167 0.714,-0.334 1.31,-0.89 2.132,-0.89 0.822,0 1.431,0.556 2.145,0.89 z"
     fill="url(#C)"
     id="path210"
     style="fill:url(#C);" />
  <g
     transform="translate(-171.268,-66.691)"
     id="g232">
    <g
       stroke="#ac8343"
       id="g228">
      <g
         class="B M"
         id="g224">
        <path
           d="m 212.373,84.041 v 40.262 c 0,0.121 0.267,0.219 0.597,0.219 0.33,0 0.596,-0.098 0.596,-0.219 V 84.041 Z"
           fill="url(#B)"
           transform="translate(-2.773)"
           class="I J"
           id="path212"
           style="fill:url(#B);fill-opacity:1;" />
        <g
           fill="none"
           stroke-linecap="round"
           id="g222">
          <path
             id="use214"
             d="m 209.6,112.644 c 0,0.121 0.267,0.219 0.597,0.219 0.33,0 0.596,-0.098 0.596,-0.219"
             style="opacity:0.999;" />
          <path
             id="use216"
             d="m 209.6,103.93 c 0,0.121 0.267,0.219 0.597,0.219 0.33,0 0.596,-0.098 0.596,-0.219"
             style="opacity:0.999;" />
          <path
             id="use218"
             d="m 209.6,97.75 c 0,0.121 0.267,0.219 0.597,0.219 0.33,0 0.596,-0.098 0.596,-0.219"
             style="opacity:0.999;" />
          <path
             id="use220"
             d="m 209.6,90.355 c 0,0.121 0.267,0.219 0.597,0.219 0.33,0 0.596,-0.098 0.596,-0.219"
             style="opacity:0.999;" />
        </g>
      </g>
      <path
         d="m 210.196,80.354 c -0.28,0.853 -0.841,1.683 -0.841,2.558 0,0.679 0.274,1.322 0.841,1.322 0.567,0 0.841,-0.643 0.841,-1.322 0,-0.875 -0.561,-1.705 -0.841,-2.558 z"
         fill="#5e4a00"
         stroke-width="0.255"
         id="path226" />
    </g>
    <path
       d="m 210.197,81.738 c -0.181,0.431 -0.326,0.825 -0.326,1.174 0,0.27 0.063,0.524 0.141,0.66 0.078,0.136 0.097,0.146 0.186,0.146 0.089,0 0.107,-0.008 0.184,-0.145 0.077,-0.137 0.141,-0.392 0.141,-0.662 0,-0.349 -0.144,-0.744 -0.324,-1.174 z"
       id="path230" />
  </g>
  <g
     id="g1874">
    <path
       d="m 38.928,57.463 c -1.859,1.261 -7.948,5.281 -15.532,5.078 2.203,-3.598 -4.419,-3.88 -1.56,0.668 2.859,4.548 7.415,8.748 17.093,10.758 9.677,-2.01 14.233,-6.21 17.092,-10.758 2.859,-4.548 -3.763,-4.266 -1.56,-0.668 -7.584,0.203 -13.673,-3.817 -15.532,-5.078 z"
       fill="#050505"
       stroke="#ffffff"
       stroke-width="0.569"
       id="path234" />
    <path
       style="fill:#ffffff;"
       d="m 38.928,57.463 -0.441,0.296 0.441,9.049 0.441,-9.049 z"
       id="path236" />
  </g>
  <g
     id="g1860">
    <path
       style="fill:#ffffff;stroke-width:3.77953;"
       d="m 117.91797,273.62305 c -4.6715,-0.0945 -9.54411,0.69566 -15.22852,2.57031 -1.51074,0.4975 -3.02686,1.02084 -4.787106,1.49414 l 4.548826,2.02148 c 0.41058,-0.13734 0.87449,-0.28507 1.26563,-0.41406 10.85858,-3.57921 17.77252,-3.012 27.24023,0.125 6.22866,2.06362 10.88457,2.66602 16.17969,2.66602 a 47.697619,47.697619 0 0 0 16.17187,-2.66602 c 9.46772,-3.137 16.38166,-3.70421 27.24024,-0.125 2.13165,0.70299 4.49299,1.56647 7.7207,2.20899 l 0.64258,-3.21289 c -2.98205,-0.59339 -5.14381,-1.37199 -7.33594,-2.09766 -11.37259,-3.74929 -19.45669,-3.13295 -29.29101,0.125 -5.95654,1.97291 -10.09144,2.50195 -15.14844,2.50195 -5.05701,0 -9.19191,-0.52904 -15.14844,-2.50195 -4.91716,-1.62898 -9.39504,-2.60082 -14.07031,-2.69531 z"
       transform="matrix(0.26458344,0,0,0.26458344,0,-6.7430618e-5)"
       id="path1683" />
    <path
       style="fill:#ffffff;"
       d="m 31.199,69.751 c -1.236,-0.025 -2.525,0.182 -4.029,0.678 -1.126,0.371 -2.234,0.817 -4.914,0.797 h -0.002 -4.209 v 0.865 h 4.205 c 2.782,0.021 4.099,-0.48 5.191,-0.84 2.873,-0.947 4.702,-0.797 7.207,0.033 1.648,0.546 2.88,0.705 4.281,0.705 a 12.62,12.62 0 0 0 4.279,-0.705 c 2.505,-0.83 4.334,-0.98 7.207,-0.033 1.093,0.36 2.409,0.861 5.191,0.84 h 4.158 V 71.226 H 55.602 55.6 c -2.68,0.02 -3.789,-0.426 -4.914,-0.797 -3.009,-0.992 -5.148,-0.829 -7.75,0.033 -1.576,0.522 -2.67,0.662 -4.008,0.662 -1.338,0 -2.432,-0.14 -4.008,-0.662 -1.301,-0.431 -2.486,-0.686 -3.723,-0.711 z"
       id="path1681" />
    <path
       style="fill:#ffffff;"
       d="m 31.199,67.278 c -1.236,-0.025 -2.525,0.182 -4.029,0.678 -0.82,0.27 -1.623,0.575 -3.041,0.719 -1.418,0.144 -3.448,0.121 -6.639,-0.311 l -0.117,0.857 c 3.234,0.437 5.334,0.467 6.844,0.314 1.51,-0.153 2.429,-0.495 3.225,-0.758 2.873,-0.947 4.702,-0.797 7.207,0.033 1.648,0.546 2.88,0.705 4.281,0.705 a 12.62,12.62 0 0 0 4.279,-0.705 c 2.505,-0.83 4.334,-0.98 7.207,-0.033 0.796,0.262 1.717,0.605 3.227,0.758 1.51,0.153 3.607,0.123 6.842,-0.314 L 60.37,68.364 c -3.19,0.431 -5.223,0.454 -6.641,0.311 -1.418,-0.143 -2.221,-0.449 -3.041,-0.719 -3.009,-0.992 -5.148,-0.829 -7.75,0.033 -1.576,0.522 -2.67,0.662 -4.008,0.662 -1.338,0 -2.432,-0.14 -4.008,-0.662 -1.301,-0.431 -2.486,-0.686 -3.723,-0.711 z"
       id="path1679" />
    <path
       d="m 31.182507,68.128253 c -1.129505,-0.02302 -2.305312,0.175948 -3.741997,0.649551 -0.795602,0.262202 -1.715027,0.604572 -3.224738,0.757501 -1.141411,0.115623 -2.623076,0.125413 -4.675182,-0.06509 a 31.15994,31.15994 0 0 0 2.380189,1.75445 h 0.331787 0.0021 c 2.680226,0.02011 3.788828,-0.425714 4.914364,-0.796924 1.504684,-0.496093 2.792939,-0.702204 4.029335,-0.677597 1.236396,0.02461 2.421463,0.280193 3.722154,0.711199 1.575591,0.522022 2.669907,0.661986 4.007903,0.661986 1.337996,0 2.432311,-0.139964 4.007903,-0.661986 2.60138,-0.861747 4.740534,-1.025789 7.749901,-0.0336 1.125536,0.370945 2.233609,0.816767 4.913835,0.796924 h 0.0021 0.333904 a 31.15994,31.15994 0 0 0 2.381247,-1.75445 c -2.0529,0.190764 -3.5343,0.18071 -4.67624,0.06509 -1.509446,-0.152929 -2.430989,-0.495299 -3.22659,-0.757501 -2.873107,-0.947207 -4.701905,-0.796659 -7.206712,0.03307 -1.647823,0.545835 -2.878134,0.704849 -4.279365,0.704849 -1.401232,0 -2.633659,-0.159014 -4.281482,-0.704849 -1.252536,-0.414866 -2.335474,-0.659605 -3.464979,-0.682624 z m 0,2.472263 c -1.129505,-0.02302 -2.305312,0.175948 -3.741997,0.649552 -0.949589,0.313001 -2.070892,0.731572 -4.173268,0.822059 0.855397,0.508529 1.734077,0.974988 2.632865,1.397792 0.466725,-0.125148 0.868362,-0.26326 1.269205,-0.395287 1.504683,-0.496093 2.792938,-0.704849 4.029334,-0.679978 1.236397,0.02487 2.421464,0.28231 3.722154,0.713051 1.575592,0.522022 2.669907,0.661987 4.007903,0.661987 1.337997,0 2.432312,-0.139965 4.007904,-0.661987 2.60138,-0.861747 4.740533,-1.025259 7.7499,-0.03307 0.400844,0.132292 0.802481,0.270139 1.269734,0.395287 0.899318,-0.422804 1.778262,-0.889528 2.633924,-1.397792 -2.1037,-0.09049 -3.225531,-0.509058 -4.175384,-0.822059 -2.873107,-0.947207 -4.701905,-0.796131 -7.206712,0.0336 -1.647823,0.545834 -2.878134,0.704849 -4.279366,0.704849 -1.401231,0 -2.633659,-0.159015 -4.281482,-0.704849 -1.252536,-0.414866 -2.335474,-0.660135 -3.464979,-0.683154 z m 0,2.644772 c -1.129505,-0.02302 -2.305312,0.175948 -3.741997,0.649551 l -0.336815,0.110067 c 3.752052,1.572946 7.768951,2.382305 11.825008,2.382305 4.056058,0 8.072692,-0.809095 11.824479,-2.381776 l -0.338401,-0.110596 c -2.873107,-0.947207 -4.701905,-0.796659 -7.206712,0.03307 -1.647823,0.545835 -2.878134,0.705378 -4.279366,0.705378 -1.401231,0 -2.633659,-0.159543 -4.281482,-0.705378 -1.252536,-0.414866 -2.335474,-0.659605 -3.464979,-0.682624 z"
       fill="url(#F)"
       class="C J"
       id="path242"
       style="fill:url(#F);stroke-width:0.264583;" />
  </g>
  <g
     id="g1854">
    <path
       d="m 22.164,30.92 -0.327,0.028 c -0.438,0.038 -1.258,0.251 -1.832,0.477 -0.505,0.199 -0.89,0.431 -1.137,0.685 -0.086,0.088 -0.172,0.161 -0.191,0.161 -0.019,0 -0.066,-0.038 -0.103,-0.085 l -0.069,-0.085 -0.806,0.307 c -0.915,0.349 -1.093,0.432 -1.352,0.629 -0.101,0.077 -0.184,0.126 -0.184,0.108 0,-0.037 0.468,-0.577 0.843,-0.979 l -0.403,-0.059 c -0.158,0.154 -0.22,0.177 -0.401,0.224 -1.51,0.39 -2.503,0.967 -2.787,1.621 l -0.11,0.253 -0.317,0.104 c -1.16,0.382 -2.134,0.898 -2.625,1.389 -0.369,0.37 -0.66,0.997 -0.807,1.743 -0.103,0.52 -0.097,0.513 -0.21,0.232 C 9.29,37.535 9.193,37.337 9.13,37.234 L 9.015,37.047 8.838,37.168 C 8.395,37.473 7.891,38.043 7.662,38.5 7.533,38.756 7.405,39.243 7.401,39.489 L 7.398,39.67 7.311,39.42 c -0.048,-0.137 -0.1,-0.249 -0.117,-0.249 -0.045,10e-4 -0.395,0.445 -0.657,0.834 -0.54,0.799 -0.789,1.398 -0.789,1.891 v 0.3 L 5.596,42.182 5.445,42.168 5.296,42.513 c -0.396,0.921 -0.618,1.845 -0.621,2.581 -0.003,0.527 0.081,0.834 0.388,1.428 0.173,0.336 0.697,1.154 1.042,1.628 0.184,0.253 0.178,0.251 -0.322,-0.143 L 4.977,47.426 C 4.563,47.147 4.502,47.117 4.468,47.176 4.447,47.213 4.422,47.454 4.413,47.71 4.387,48.433 4.503,49 4.801,49.598 4.946,49.89 4.949,49.9 4.857,49.858 4.805,49.834 4.749,49.827 4.735,49.842 4.721,49.857 4.701,50.121 4.692,50.43 c -0.013,0.451 0,0.635 0.062,0.937 0.088015,0.440233 0.2575976,0.86012 0.5,1.238 L 5.428,52.87 5.129,52.709 c -0.164,-0.089 -0.31,-0.15 -0.323,-0.136 -0.013,0.014 -0.023,0.249 -0.021,0.524 0.006,0.791 0.226,1.541 0.632,2.147 l 0.213,0.331 c 0,0.008 -0.095,-0.039 -0.21,-0.104 -0.115,-0.065 -0.234,-0.119 -0.262,-0.119 -0.084,0 -0.031,1.124 0.071,1.507 0.167,0.63 0.428,1.161 0.783,1.598 0.094,0.115 0.161,0.209 0.149,0.209 -0.087944,-0.03455 -0.173761,-0.07429 -0.257,-0.119 L 5.668,58.428 5.661,58.655 c -0.039,1.294 0.266,2.185 1.094,3.2 l 0.107,0.132 -0.238,-0.12 -0.238,-0.12 -0.023,0.087 c -0.037,0.14 -0.029,0.667 0.017,0.997 0.1239318,0.885912 0.5125707,1.71373 1.115,2.375 L 7.66,65.385 7.494,65.3 7.306,65.216 c -0.037,0 -0.022,0.917 0.019,1.17 0.065,0.401 0.23,0.919 0.404,1.272 0.226,0.46 0.537,0.862 1.02,1.322 0.226,0.215 0.382,0.381 0.347,0.368 l -1.267,-0.4 C 7.769,68.933 7.72,68.936 7.72,68.954 c 0,0.063 0.267,0.823 0.471,1.339 0.474,1.202 1.036,2.173 1.493,2.577 0.935,0.827 2.583,1.357 3.994,1.285 1.244,-0.063 2.073,-0.247 5.682,-1.263 l 0.966,-0.261 c 3.334,-0.852 3.91,0.487 4.958,1.283 l 0.269,-0.359 0.39,-0.537 -0.278,-0.521 -1.44,-1.095 c -1.347,-0.717 -1.884,-0.65 -2.121,-0.685 -0.548,-0.082 -0.983,-0.193 -1.108,-0.283 -0.521,-0.14 -0.217,-1.673 -0.557,-2.64 -0.21,-0.745 -0.757,-2.184 -0.844,-2.184 -0.1,0 -0.64,0.849 -0.846,1.329 -0.146,0.339 -0.334,0.996 -0.34,1.192 -0.003,0.103 -0.003,0.103 -0.043,-0.015 -0.022,-0.065 -0.043,-0.331 -0.046,-0.592 -0.007,-0.571 0.028,-0.699 0.413,-1.552 0.456,-1.009 0.476,-1.235 0.232,-2.729 l -0.158,-1.072 c 0,-0.125 -0.085,-0.22 -0.228,-0.256 -0.089,-0.022 -0.129,0.002 -0.28,0.167 -0.279,0.307 -0.807,1.026 -1.068,1.455 -0.132,0.216 -0.24,0.362 -0.24,0.324 0,-0.094 0.073,-0.229 0.378,-0.699 0.364,-0.561 0.589,-1.043 0.69,-1.479 0.077,-0.334 0.083,-0.446 0.065,-1.092 -0.022,-0.748 -0.082,-1.136 -0.229,-1.481 -0.102,-0.238 -0.221,-0.364 -0.343,-0.364 -0.085,0 -0.093,-0.013 -0.07,-0.109 0.05933,-0.535331 0.0677,-1.075086 0.025,-1.612 -0.089,-0.52 -0.276,-0.745 -0.5,-0.604 -0.437752,0.338392 -0.854833,0.702712 -1.249,1.091 l -0.265,0.252 c 0,-0.014 0.171,-0.23 0.378,-0.48 0.796,-0.958 0.988,-1.455 1.027,-2.663 0.023,-0.722 -0.028,-1.123 -0.174,-1.375 -0.084,-0.145 -0.241,-0.182 -0.382,-0.089 l -0.093,0.06 0.055,-0.205 c 0.091,-0.344 0.146,-1.01 0.121,-1.468 -0.043,-0.805 -0.247,-1.208 -0.52,-1.029 -0.052,0.034 -0.102,0.062 -0.111,0.062 -0.009,0 0.009,-0.102 0.04,-0.227 0.079,-0.317 0.114,-1.457 0.055,-1.806 -0.101,-0.599 -0.311,-0.747 -0.644,-0.453 l -0.183,0.161 0.098,-0.239 c 0.155,-0.38 0.221,-0.765 0.241,-1.401 0.015,-0.448 0.004,-0.662 -0.042,-0.882 -0.124,-0.582 -0.297,-0.691 -0.629,-0.399 -0.102,0.09 -0.185,0.152 -0.185,0.138 0.35,-0.794 0.478,-1.687 0.23,-2.644 -0.08,-0.101 -0.28,-0.141 -0.328,-0.064 -0.012,0.02 -0.094,0.094 -0.182,0.163 l -0.16,0.127 0.223,-0.342 c 0.297,-0.456 0.47,-0.842 0.623,-1.386 l 0.127,-0.452 0.375,-1.595 c 0.05755,-0.05201 0.120589,-0.09762 0.188,-0.136 0.075,-0.048 0.136,-0.079 0.216,-0.102 l 0.611,-0.464 0.548,-0.551 0.548,-0.551 0.741,-0.811 c 0.069,-0.079 0.066,-0.081 -0.217,-0.164 -0.352,-0.103 -0.829,-0.204 -0.967,-0.204 -0.165,0 -0.085,-0.035 0.31,-0.14 0.685421,-0.181327 1.304091,-0.556278 1.782,-1.08 0.224,-0.237 0.659,-0.825 0.659,-0.889 0,-0.012 -0.244,-0.023 -0.543,-0.024 l -0.542,-0.002 0.493,-0.136 c 0.741,-0.204 1.015,-0.353 1.442,-0.783 0.509,-0.512 1.081,-1.401 1.359,-2.11 z"
       fill="#a4941d"
       class="C J"
       id="path244"
       sodipodi:nodetypes="ccccsccccsccccccccccccccccccscccccccccccccscccccscccssccccccccccsccccccccccscccccccccccccsccccccccccsccccscccccccscccccsccccccccccccccccccccccccsccscccccc" />
    <path
       d="m 22.164,30.92 -0.327,0.028 c -0.438,0.038 -1.258,0.251 -1.832,0.477 -0.505,0.199 -0.89,0.431 -1.137,0.685 -0.086,0.088 -0.172,0.161 -0.191,0.161 -0.019,0 -0.065,-0.038 -0.103,-0.085 l -0.069,-0.085 -0.806,0.307 c -0.915,0.349 -1.093,0.432 -1.352,0.629 -0.101,0.077 -0.184,0.126 -0.184,0.108 0,-0.037 0.468,-0.577 0.843,-0.979 l -0.403,-0.059 c -0.158,0.154 -0.22,0.177 -0.401,0.224 -1.51,0.39 -2.503,0.967 -2.787,1.621 l -0.11,0.253 -0.317,0.104 c -1.16,0.382 -2.134,0.898 -2.625,1.389 -0.369,0.37 -0.66,0.997 -0.807,1.743 -0.103,0.52 -0.097,0.513 -0.21,0.232 C 9.291,37.535 9.193,37.337 9.13,37.234 L 9.015,37.047 8.838,37.168 C 8.395,37.473 7.891,38.043 7.662,38.5 7.533,38.756 7.405,39.243 7.401,39.489 L 7.398,39.67 7.311,39.42 c -0.048,-0.137 -0.1,-0.249 -0.117,-0.249 -0.045,10e-4 -0.395,0.445 -0.657,0.834 -0.54,0.799 -0.789,1.398 -0.789,1.891 v 0.3 L 5.596,42.182 5.445,42.168 5.296,42.513 c -0.396,0.921 -0.618,1.845 -0.621,2.581 -0.003,0.527 0.081,0.834 0.388,1.428 0.173,0.336 0.697,1.154 1.042,1.628 0.184,0.253 0.178,0.251 -0.322,-0.143 L 4.977,47.426 C 4.563,47.147 4.502,47.117 4.468,47.176 4.447,47.213 4.422,47.454 4.413,47.71 4.387,48.433 4.503,49 4.801,49.598 4.946,49.89 4.949,49.9 4.857,49.858 4.805,49.834 4.749,49.827 4.735,49.842 4.721,49.857 4.701,50.121 4.692,50.43 c -0.013,0.451 0,0.635 0.062,0.937 a 3.6,3.6 0 0 0 0.5,1.238 L 5.428,52.87 5.129,52.709 c -0.164,-0.089 -0.31,-0.15 -0.323,-0.136 -0.013,0.014 -0.023,0.249 -0.021,0.524 0.006,0.791 0.226,1.541 0.632,2.147 l 0.213,0.331 c 0,0.008 -0.095,-0.039 -0.21,-0.104 -0.115,-0.065 -0.234,-0.119 -0.262,-0.119 -0.084,0 -0.031,1.124 0.071,1.507 0.167,0.63 0.428,1.161 0.783,1.598 0.094,0.115 0.161,0.209 0.149,0.209 A 2.39,2.39 0 0 1 5.904,58.547 L 5.668,58.428 5.661,58.655 c -0.039,1.294 0.266,2.185 1.094,3.2 l 0.107,0.132 -0.238,-0.12 -0.238,-0.12 -0.023,0.087 c -0.037,0.14 -0.028,0.667 0.018,0.997 a 4.44,4.44 0 0 0 1.115,2.375 L 7.661,65.385 7.495,65.3 7.307,65.216 c -0.037,0 -0.023,0.917 0.018,1.17 0.065,0.401 0.23,0.919 0.404,1.272 0.226,0.46 0.537,0.862 1.02,1.322 0.226,0.215 0.382,0.381 0.347,0.368 l -1.267,-0.4 c -0.06,-0.015 -0.108,-0.012 -0.108,0.006 0,0.063 0.267,0.823 0.471,1.339 0.474,1.202 1.036,2.173 1.493,2.577 0.935,0.827 2.583,1.357 3.994,1.285 1.244,-0.064 2.073,-0.247 5.682,-1.263 l 0.966,-0.261 c 3.339,-0.853 3.912,0.492 4.964,1.287 l 0.654,-0.901 -0.278,-0.521 -1.44,-1.095 c -1.347,-0.717 -1.884,-0.65 -2.121,-0.685 -0.548,-0.082 -0.982,-0.193 -1.108,-0.283 -0.521,-0.14 -0.217,-1.673 -0.557,-2.64 -0.21,-0.745 -0.757,-2.184 -0.844,-2.184 -0.1,0 -0.64,0.849 -0.846,1.329 -0.146,0.339 -0.333,0.996 -0.34,1.192 -0.003,0.103 -0.003,0.103 -0.043,-0.015 -0.022,-0.065 -0.043,-0.331 -0.046,-0.592 -0.007,-0.571 0.028,-0.699 0.413,-1.552 0.456,-1.009 0.476,-1.235 0.232,-2.729 L 18.809,62.17 c 0,-0.125 -0.084,-0.22 -0.228,-0.256 -0.089,-0.022 -0.129,0.002 -0.28,0.167 -0.279,0.307 -0.807,1.026 -1.068,1.455 -0.132,0.216 -0.24,0.362 -0.24,0.324 0,-0.094 0.073,-0.229 0.378,-0.699 0.364,-0.561 0.589,-1.043 0.69,-1.479 0.077,-0.334 0.083,-0.446 0.065,-1.092 -0.022,-0.748 -0.082,-1.136 -0.229,-1.481 -0.102,-0.238 -0.221,-0.364 -0.343,-0.364 -0.085,0 -0.093,-0.013 -0.07,-0.109 a 8.51,8.51 0 0 0 0.025,-1.612 c -0.089,-0.52 -0.276,-0.745 -0.5,-0.604 a 13.85,13.85 0 0 0 -1.248,1.091 l -0.265,0.252 c 0,-0.014 0.171,-0.23 0.378,-0.48 0.797,-0.958 0.988,-1.455 1.027,-2.663 0.023,-0.722 -0.028,-1.123 -0.174,-1.375 -0.084,-0.145 -0.241,-0.182 -0.382,-0.089 l -0.093,0.06 0.055,-0.205 c 0.091,-0.344 0.146,-1.01 0.121,-1.468 -0.043,-0.805 -0.247,-1.208 -0.52,-1.029 -0.052,0.034 -0.102,0.062 -0.111,0.062 -0.009,0 0.009,-0.102 0.04,-0.227 0.079,-0.317 0.114,-1.457 0.055,-1.806 -0.101,-0.6 -0.311,-0.747 -0.644,-0.453 l -0.183,0.161 0.097,-0.239 c 0.155,-0.38 0.221,-0.765 0.242,-1.401 0.015,-0.448 0.004,-0.662 -0.042,-0.882 -0.124,-0.582 -0.297,-0.691 -0.629,-0.399 -0.102,0.09 -0.185,0.152 -0.185,0.138 0.35,-0.794 0.478,-1.687 0.23,-2.644 -0.08,-0.101 -0.28,-0.14 -0.328,-0.064 -0.012,0.02 -0.095,0.094 -0.182,0.163 l -0.16,0.127 0.223,-0.342 c 0.297,-0.456 0.47,-0.842 0.623,-1.386 l 0.127,-0.452 0.375,-1.595 c 0,-0.009 0.084,-0.07 0.188,-0.136 0.075,-0.048 0.136,-0.079 0.216,-0.102 l 0.611,-0.464 0.548,-0.551 0.548,-0.551 0.741,-0.811 c 0.069,-0.079 0.066,-0.081 -0.217,-0.164 -0.352,-0.103 -0.829,-0.204 -0.967,-0.204 -0.165,0 -0.085,-0.035 0.31,-0.14 a 3.69,3.69 0 0 0 1.782,-1.08 c 0.224,-0.237 0.659,-0.825 0.659,-0.889 0,-0.012 -0.244,-0.023 -0.543,-0.024 l -0.542,-0.002 0.493,-0.136 c 0.741,-0.204 1.015,-0.353 1.442,-0.783 0.509,-0.512 1.081,-1.401 1.359,-2.11 z m -4.548,3.264 c 0.012,0.012 0,0.044 -0.027,0.071 -0.039,0.039 -0.044,0.034 -0.022,-0.022 0.015,-0.039 0.037,-0.061 0.049,-0.049 z m -3.002,1.398 c 0.011,0.11 0.149,0.201 0.29,0.201 0.074,0 0.289,-0.041 0.477,-0.091 l 0.343,-0.092 -0.098,0.121 c -0.321,0.397 -0.449,0.576 -0.44,0.615 0.006,0.024 -0.073,0.076 -0.175,0.116 -0.429,0.166 -0.774,0.445 -1.055,0.85 -0.394,0.569 -0.7,1.349 -0.803,2.042 -0.025,0.168 -0.055,0.306 -0.067,0.306 -0.012,0 -0.064,-0.479 -0.115,-1.064 l -0.121,-1.194 -0.028,-0.13 -0.451,0.454 c -0.726,0.731 -1.231,1.451 -1.448,2.064 -0.188,0.529 -0.109,1.354 0.188,1.99 0.063,0.136 0.109,0.247 0.1,0.247 -0.009,0 -0.133,-0.082 -0.277,-0.183 -0.149,-0.104 -0.276,-0.167 -0.296,-0.148 -0.02,0.019 -0.063,0.283 -0.099,0.587 -0.083,0.698 -0.088,1.968 -0.01,2.397 v 0 c 0.03,0.168 0.045,0.305 0.033,0.304 A 0.27,0.27 0 0 1 10.478,44.925 C 10.428,44.887 10.407,44.722 10.37,44.107 L 10.268,43.101 C 9.912,41.577 9.624,39.96 9.646,39.605 9.659,39.394 9.666,39.381 9.804,39.316 a 14.56,14.56 0 0 0 1.375,-0.839 c 0.745,-0.531 1.237,-1.032 1.469,-1.491 0.107,-0.211 0.139,-0.239 0.561,-0.488 l 1.247,-0.822 c 0.08,-0.065 0.134,-0.097 0.157,-0.094 z m -1.447,4.975 c 0.024,0 0.031,0.018 0.018,0.039 -0.013,0.021 -0.032,0.039 -0.042,0.039 -0.01,0 -0.017,-0.018 -0.017,-0.039 0,-0.021 0.018,-0.039 0.041,-0.039 z m -5.159,3.156 a 6.78,6.78 0 0 1 0.086,0.334 c 0.082,0.345 0.305,0.944 0.482,1.298 l 0.123,0.28 C 8.689,45.633 7.77,44.886 7.702,44.815 7.69,44.802 7.714,44.678 7.757,44.539 l 0.155,-0.568 c 0.042,-0.173 0.085,-0.288 0.096,-0.256 z m 2.099,3.425 0.031,0.172 c 0.108,0.582 0.306,1.14 0.503,1.417 0.047,0.066 0.079,0.126 0.071,0.132 -0.008,0.006 -0.431,-0.164 -0.458,-0.191 -0.006,-0.006 -0.087,-0.316 -0.181,-0.69 l -0.17,-0.68 0.101,-0.08 z m -2.411,1.431 c 0.032,0.034 0.285,0.373 0.314,0.421 0.039,0.063 0.037,0.063 -0.162,-0.061 -0.144,-0.09 -0.168,-0.124 -0.168,-0.24 0,-0.074 0.007,-0.128 0.016,-0.119 z m 4.929,1.859 0.26,0.141 0.271,0.148 c 0.006,0.004 0,0.134 -0.016,0.289 -0.016,0.155 -0.038,0.282 -0.052,0.282 -0.014,0 -0.047,-0.058 -0.072,-0.129 -0.025,-0.071 -0.124,-0.264 -0.219,-0.429 z M 10.3,51.066 c 0.01,0.003 0.029,0.018 0.055,0.044 0.044,0.043 0.119,0.221 0.165,0.395 0.142,0.53 0.437,1.076 0.764,1.419 l 0.264,0.296 A 1.16,1.16 0 0 1 11.39,53.142 C 11.314,53.1 11.166,53.037 11.062,53.001 10.841,52.925 10.842,52.928 10.699,52.313 10.641,52.063 10.532,51.7 10.456,51.504 L 10.296,51.09 C 10.289,51.07 10.29,51.062 10.3,51.066 Z m -2.339,1.228 0.067,0.098 c 0.037,0.054 0.172,0.22 0.299,0.368 L 8.558,53.029 8.319,52.908 8.08,52.788 8.031,53.024 v 0 C 8.004,53.154 7.972,53.26 7.96,53.26 7.942,53.259 7.889,53.112 7.656,52.419 7.635,52.356 7.653,52.36 7.794,52.448 c 0.089,0.056 0.175,0.103 0.189,0.103 0.014,0 0.014,-0.058 0.003,-0.128 z m 4.859,1.767 0.391,0.202 c 0.306,0.157 0.396,0.223 0.413,0.3 0.106,0.467 0.201,0.784 0.331,1.093 0.133,0.319 0.149,0.387 0.124,0.552 L 14.051,56.397 13.977,56.2 c -0.329,-0.88 -0.578,-1.377 -0.914,-1.818 z m -2.131,0.794 c 0.013,-0.002 0.051,0.014 0.1,0.043 0.091,0.054 0.148,0.147 0.245,0.398 0.22,0.565 0.521,0.993 0.908,1.29 0.162,0.124 0.155,0.126 -0.073,0.025 A 3.6,3.6 0 0 0 11.494,56.476 L 11.29,56.417 11.158,55.993 a 6.5,6.5 0 0 0 -0.296,-0.759 l -0.179,-0.371 z m -2.186,1.082 c 0.006,-10e-4 0.025,0.023 0.056,0.065 0.048,0.065 0.193,0.23 0.322,0.365 0.241,0.253 0.237,0.273 -0.035,0.19 C 8.695,56.511 8.684,56.496 8.58,56.196 Z m 4.683,1.383 0.158,0.066 0.507,0.193 0.349,0.127 0.153,0.407 a 6.41,6.41 0 0 0 0.296,0.665 c 0.123,0.224 0.138,0.28 0.116,0.428 -0.014,0.094 -0.038,0.17 -0.053,0.169 -0.015,-10e-4 -0.119,-0.191 -0.232,-0.424 -0.334,-0.692 -0.689,-1.159 -1.157,-1.523 z m -1.978,0.59 0.165,0.013 0.147,0.463 c 0.17,0.533 0.383,0.978 0.616,1.287 0.09,0.119 0.149,0.215 0.132,0.213 -0.017,-0.002 -0.1,-0.024 -0.185,-0.05 -0.155,-0.047 -0.156,-0.047 -0.318,-0.519 -0.177,-0.514 -0.353,-0.886 -0.549,-1.164 l -0.149,-0.217 c -0.015,-0.024 0.038,-0.034 0.141,-0.026 z m -1.832,1.684 0.258,0.255 0.257,0.266 A 1.09,1.09 0 0 1 9.507,59.991 C 9.498,59.982 9.466,59.889 9.434,59.784 Z m -0.188,1.284 0.114,0.058 c 0.08,0.041 0.126,0.106 0.157,0.219 0.068,0.253 0.03,0.245 -0.126,-0.026 z m 5.221,0.211 0.301,0.109 c 0.206,0.071 0.227,0.091 0.292,0.263 0.038,0.102 0.139,0.324 0.223,0.494 0.137,0.274 0.153,0.336 0.142,0.552 l -0.012,0.244 -0.126,-0.28 c -0.173,-0.386 -0.451,-0.849 -0.695,-1.155 -0.135,-0.17 -0.178,-0.246 -0.126,-0.225 z m -4.466,1.38 c 0.007,-0.003 0.017,-0.002 0.028,0.005 0.022,0.013 0.039,0.031 0.039,0.041 0,0.01 -0.018,0.018 -0.039,0.018 -0.021,0 -0.04,-0.019 -0.04,-0.042 0,-0.012 0.005,-0.019 0.012,-0.022 z m 2.995,0.754 c 0.007,-0.006 0.106,0.076 0.222,0.182 0.116,0.106 0.196,0.192 0.178,0.19 a 2.25,2.25 0 0 1 -0.189,-0.053 c -0.127,-0.039 -0.162,-0.072 -0.19,-0.178 -0.018,-0.071 -0.028,-0.135 -0.021,-0.141 z m -3.133,0.883 0.155,0.079 c 0.136,0.069 0.16,0.104 0.202,0.285 0.026,0.113 0.041,0.213 0.034,0.22 -0.007,0.007 -0.054,-0.062 -0.105,-0.154 C 10.04,64.444 9.956,64.31 9.902,64.237 Z m 6.104,0.203 c 0.007,0 0.069,0.1 0.137,0.222 a 5.72,5.72 0 0 0 0.294,0.454 l 0.169,0.232 0.022,0.542 a 3.56,3.56 0 0 0 0.325,1.475 c 0.093,0.212 0.138,0.369 0.13,0.457 -0.01,0.111 -0.042,0.044 -0.186,-0.383 -0.437,-1.304 -0.925,-2.159 -1.512,-2.649 -0.136,-0.114 -0.213,-0.193 -0.169,-0.175 0.175,0.071 0.868,0.291 0.88,0.28 0.012,-0.011 -0.014,-0.112 -0.046,-0.234 a 1.04,1.04 0 0 1 -0.046,-0.221 z m -2.706,0.907 c 0.02,0 0.055,0.056 0.079,0.125 0.057,0.163 0.036,0.178 -0.048,0.036 -0.076,-0.129 -0.082,-0.16 -0.031,-0.16 z m -2.549,0.608 c 0.005,-0.003 0.101,0.116 0.214,0.265 l 0.197,0.267 -0.156,-0.064 C 10.783,66.24 10.754,66.204 10.704,66.031 l -0.051,-0.207 z m 3.361,1.088 v 0 c 0.015,-0.004 0.073,0.038 0.162,0.12 0.212,0.196 0.683,0.525 0.963,0.672 0.16,0.084 0.168,0.094 0.079,0.104 l -0.394,0.054 -0.375,0.06 c -0.069,0.016 -0.099,-0.04 -0.241,-0.447 L 14.015,66.931 Z M 11.29,68.49 c 0.008,0 0.091,0.102 0.186,0.227 a 8.38,8.38 0 0 0 0.508,0.578 l 0.336,0.351 -0.153,-0.024 -0.153,-0.024 0.024,0.258 c 0.069,0.738 0.685,2.164 1.131,2.621 a 2.48,2.48 0 0 0 0.947,0.573 c 0.214,0.07 0.216,0.07 0.099,0.102 v 0 c -0.594,0.162 -1.088,-0.013 -1.458,-0.517 -0.123,-0.168 -0.811,-1.427 -0.811,-1.485 0,-0.012 0.018,-0.011 0.041,0.003 0.023,0.014 0.034,-0.009 0.022,-0.067 L 11.926,70.659 A 11.48,11.48 0 0 0 11.36,68.696 c -0.046,-0.114 -0.077,-0.207 -0.069,-0.207 z"
       fill="#a07843"
       id="path246" />
    <g
       class="L"
       id="g270"
       transform="translate(-66.072,-66.691)">
      <path
         d="m 84.761,100.524 c 0.567,-0.13 1.042,-0.284 1.309,-0.425 0.307,-0.162 0.736,-0.602 1.064,-1.092 0.292,-0.436 0.566,-0.945 0.529,-0.982 -0.074,-0.074 -1.346,0.315 -1.87,0.572 -0.355,0.174 -0.819,0.598 -1.1,1.005 -0.194,0.281 -0.524,0.897 -0.524,0.977 0,0.061 0.138,0.049 0.592,-0.055 z m -3.267,1.492 c 0.881,-0.278 1.487,-0.736 2.089,-1.578 0.231,-0.324 0.708,-1.129 0.684,-1.154 -0.024,-0.025 -1.072,0.385 -1.32,0.511 -0.484,0.245 -0.991,0.764 -1.25,1.279 a 3.49,3.49 0 0 1 -0.239,0.409 c -0.089,0.118 -0.325,0.567 -0.325,0.617 0,0.029 0.012,0.026 0.363,-0.084 z m 0.77,0.771 c 1.137,-0.218 1.73,-0.413 2.182,-0.72 0.206,-0.14 0.681,-0.587 0.799,-0.751 l 0.081,-0.113 -0.765,0.017 c -0.67,0.015 -0.793,0.028 -0.988,0.104 -0.458,0.179 -0.948,0.561 -1.463,1.142 -0.275,0.31 -0.342,0.403 -0.289,0.403 a 16.18,16.18 0 0 0 0.444,-0.082 z m -2.898,-0.03 c 0.655,-0.41 1.208,-0.828 1.561,-1.18 0.245,-0.244 0.321,-0.355 0.501,-0.731 0.291,-0.606 0.612,-1.388 0.575,-1.401 -0.065,-0.024 -0.758,0.244 -1.221,0.471 -0.575,0.283 -0.889,0.556 -1.011,0.881 l -0.517,1.233 -0.413,1.036 c 0.016,0 0.252,-0.139 0.524,-0.309 z m -3.049,2.615 c 0.831,-0.496 1.683,-1.176 1.914,-1.53 0.062,-0.095 0.063,-0.109 0.005,-0.166 -0.035,-0.035 -0.063,-0.093 -0.064,-0.129 a 0.83,0.83 0 0 0 -0.024,-0.155 c -0.021,-0.077 -0.009,-0.089 0.09,-0.089 0.111,0 0.123,-0.022 0.478,-0.858 l 0.389,-0.991 c 0.03,-0.156 0.052,-0.158 -0.519,0.063 -0.882,0.343 -1.631,0.784 -1.976,1.165 -0.338,0.373 -0.607,1.085 -0.744,1.963 -0.078,0.5 -0.119,1.026 -0.081,1.026 0.017,0 0.256,-0.134 0.53,-0.298 z m 4.16,0.834 c 1.354,-0.81 1.807,-1.135 2.364,-1.7 l 0.97,-1.063 c -0.009,-0.009 -0.167,-0.048 -0.351,-0.088 -0.253,-0.055 -0.505,-0.072 -1.026,-0.072 -0.613,0 -0.724,0.01 -0.986,0.092 a 1.99,1.99 0 0 0 -1.174,0.86 c -0.424,0.626 -0.683,1.396 -0.776,2.312 -0.013,0.125 -0.011,0.227 0.003,0.227 0.014,0 0.454,-0.256 0.977,-0.569 z m -5.956,2.118 c 0.26,-0.366 0.61,-1.036 0.726,-1.391 0.226,-0.691 0.168,-1.646 -0.152,-2.495 -0.105,-0.278 -0.107,-0.277 -0.54,0.181 -0.739,0.78 -0.897,1.507 -0.624,2.854 0.106,0.521 0.292,1.157 0.34,1.157 0.018,0 0.13,-0.138 0.25,-0.306 z m 4.199,1.578 a 15.62,15.62 0 0 0 0.162,-2.016 c 0,-0.56 -0.17,-2.869 -0.228,-3.098 -0.029,-0.113 -0.03,-0.112 -0.344,0.249 -0.832,0.955 -1.116,1.556 -1.074,2.273 0.033,0.557 0.156,0.877 0.748,1.943 0.226,0.408 0.606,0.952 0.667,0.954 0.014,0.001 0.045,-0.137 0.069,-0.305 z"
         id="path248" />
      <path
         d="m 79.587,109.976 c 0.633,-0.831 0.863,-1.235 1.069,-1.879 0.143,-0.447 0.489,-1.834 0.463,-1.859 -0.009,-0.009 -0.281,0.141 -0.604,0.333 -0.663,0.395 -0.766,0.5 -1.059,1.079 -0.197,0.39 -0.236,0.557 -0.299,1.275 l -0.059,1.34 c 0.034,0.319 0.019,0.328 0.489,-0.289 z m -6.057,1.1 c 0.312,-1.04 0.36,-1.767 0.17,-2.577 l -0.464,-1.738 -0.081,-0.271 -0.153,0.212 c -0.495,0.688 -0.866,1.479 -0.866,1.849 -10e-4,0.416 0.248,1.166 0.796,2.399 0.308,0.693 0.324,0.719 0.391,0.651 0.038,-0.039 0.131,-0.275 0.206,-0.525 z m 5.825,2.234 c 0.033,-0.117 0.142,-0.283 0.331,-0.504 0.574,-0.67 0.726,-0.916 0.851,-1.375 0.13,-0.478 0.186,-1.578 0.081,-1.578 -0.066,0 -0.89,0.702 -1.053,0.897 a 5.05,5.05 0 0 0 -0.331,0.461 l -0.164,0.262 0.068,0.502 0.09,1.023 c 0.012,0.287 0.035,0.514 0.05,0.504 0.015,-0.01 0.05,-0.096 0.077,-0.192 z m -3.306,0.031 a 25.37,25.37 0 0 0 0.054,-1.358 c 0.031,-1.355 0.002,-1.741 -0.197,-2.565 l -0.417,-2.119 a 3.7,3.7 0 0 0 -0.193,0.367 c -0.106,0.215 -0.293,0.533 -0.415,0.707 -0.288,0.41 -0.319,0.482 -0.42,0.971 -0.148,0.717 -0.06,1.291 0.343,2.237 0.317,0.743 1.066,2.005 1.169,1.971 0.027,-0.009 0.061,-0.103 0.076,-0.21 z"
         id="path250" />
      <path
         d="m 78.91,113.256 c -0.04,-1.073 -0.182,-1.96 -0.401,-2.499 -0.178,-0.437 -0.765,-1.194 -1.245,-1.605 l -0.296,-0.253 -0.028,0.171 a 13.2,13.2 0 0 0 -0.055,0.881 c -0.062,1.607 0.153,2.235 1.077,3.142 0.333,0.327 0.905,0.82 0.955,0.823 0.009,0 0.005,-0.297 -0.008,-0.66 z m -5.512,1.785 c -0.135,-1.615 -0.422,-2.853 -0.832,-3.593 -0.311,-0.56 -0.69,-1.352 -0.808,-1.687 -0.06,-0.169 -0.122,-0.294 -0.139,-0.276 -0.06,0.061 -0.275,0.705 -0.4,1.194 -0.11,0.433 -0.126,0.561 -0.128,1.027 -0.002,0.607 0.031,0.743 0.32,1.322 0.236,0.473 0.883,1.435 1.48,2.202 l 0.486,0.624 0.031,-0.15 c 0.017,-0.083 0.012,-0.381 -0.011,-0.663 z"
         id="path252" />
      <path
         d="m 78.982,116.393 c -0.123,-0.85 -0.297,-1.602 -0.504,-2.176 -0.074,-0.206 -0.152,-0.301 -0.678,-0.829 -0.359,-0.36 -0.649,-0.689 -0.732,-0.829 -0.154,-0.261 -0.322,-0.442 -0.507,-0.548 l -0.124,-0.071 v 0.678 c 0,0.751 0.067,1.31 0.219,1.837 0.174,0.599 0.429,0.998 0.925,1.442 0.479,0.428 1.424,1.067 1.452,0.981 0.007,-0.022 -0.016,-0.239 -0.051,-0.484 z m 0.751,0.057 a 1.53,1.53 0 0 1 0.346,-0.625 c 0.629,-0.77 0.83,-1.103 0.95,-1.574 a 5.17,5.17 0 0 0 0.108,-1.51 c -0.022,-0.2 -0.055,-0.389 -0.072,-0.419 -0.024,-0.041 -0.149,0.045 -0.505,0.347 -0.603,0.512 -0.877,0.84 -1.123,1.342 -0.382,0.78 -0.398,0.864 -0.283,1.448 l 0.139,0.752 c 0.032,0.188 0.097,0.434 0.146,0.546 0.086,0.201 0.089,0.203 0.14,0.112 a 3.38,3.38 0 0 0 0.154,-0.419 z m -3.533,0.179 c -0.258,-1.717 -0.591,-2.919 -0.935,-3.37 -0.173,-0.227 -1.582,-1.434 -1.674,-1.434 -0.13,0 -0.132,1.208 -0.004,1.992 0.148,0.903 0.396,1.319 1.367,2.291 0.565,0.566 1.294,1.185 1.317,1.119 0.007,-0.02 -0.025,-0.29 -0.072,-0.599 z m -2.543,1.854 -0.102,-0.541 c -0.106,-0.576 -0.279,-1.12 -0.484,-1.521 -0.129,-0.252 -0.245,-0.399 -0.578,-0.731 a 13.27,13.27 0 0 0 -1.59,-1.28 l -0.108,-0.07 v 0.256 c 0,0.368 0.101,0.894 0.241,1.258 0.226,0.587 0.732,1.217 1.51,1.883 0.41,0.351 1.045,0.834 1.096,0.834 0.019,0 0.026,-0.04 0.015,-0.089 z m 6.567,0.838 c 0.07,-0.236 0.141,-0.348 0.512,-0.812 0.628,-0.786 0.823,-1.208 0.908,-1.969 0.062,-0.558 0.036,-1.203 -0.059,-1.472 -0.012,-0.033 -0.186,0.09 -0.482,0.339 -0.701,0.591 -0.948,0.88 -1.093,1.28 a 11.13,11.13 0 0 1 -0.293,0.687 c -0.183,0.394 -0.202,0.461 -0.202,0.713 0,0.473 0.144,1.077 0.393,1.647 l 0.086,0.196 0.075,-0.168 c 0.041,-0.093 0.112,-0.292 0.157,-0.442 z m -0.747,1.078 c -0.151,-0.885 -0.518,-2.079 -0.822,-2.675 -0.291,-0.569 -1.078,-1.313 -1.879,-1.777 l -0.194,-0.112 0.027,0.443 c 0.052,0.858 0.268,1.874 0.518,2.432 0.195,0.436 0.699,0.957 1.343,1.39 0.308,0.207 1.016,0.605 1.037,0.584 0.009,-0.009 -0.004,-0.137 -0.029,-0.285 z m -2.725,0.608 c 0,-0.199 -0.127,-1.103 -0.219,-1.558 -0.123,-0.61 -0.301,-1.172 -0.483,-1.528 -0.246,-0.48 -1.058,-1.233 -1.949,-1.808 l -0.338,-0.218 -0.024,0.145 c -0.102,0.618 0.094,1.786 0.409,2.437 0.216,0.447 0.42,0.701 1.092,1.361 0.525,0.515 1.4,1.259 1.481,1.259 0.017,0 0.031,-0.04 0.031,-0.09 z m -2.841,0.144 c 0,-0.188 -0.199,-1.093 -0.32,-1.453 -0.156,-0.467 -0.313,-0.753 -0.583,-1.064 -0.27,-0.311 -0.949,-0.896 -1.511,-1.303 l -0.408,-0.296 -0.012,0.225 c -0.026,0.465 0.12,1.096 0.367,1.586 0.301,0.6 1.092,1.409 2.171,2.222 l 0.266,0.181 c 0.016,0.002 0.03,-0.044 0.03,-0.101 z"
         id="path254" />
      <path
         d="m 80.703,121.918 c 0.072,-0.237 0.144,-0.352 0.512,-0.811 0.738,-0.923 0.899,-1.34 0.932,-2.416 0.019,-0.624 -0.026,-1.104 -0.104,-1.104 -0.072,0 -0.685,0.65 -1.029,1.093 -0.33,0.424 -0.392,0.529 -0.52,0.885 -0.08,0.222 -0.226,0.568 -0.326,0.768 -0.11,0.222 -0.181,0.417 -0.181,0.501 0,0.345 0.174,0.993 0.415,1.547 l 0.069,0.158 0.074,-0.172 c 0.041,-0.094 0.111,-0.296 0.157,-0.448 z m -0.74,1.813 a 12.76,12.76 0 0 0 -0.527,-1.458 c -0.393,-0.883 -0.748,-1.309 -1.491,-1.79 -0.205,-0.133 -0.891,-0.49 -0.941,-0.49 -0.074,0 0.129,1.06 0.305,1.588 0.365,1.095 0.833,1.55 2.244,2.185 l 0.422,0.171 c 0.035,0.002 0.032,-0.052 -0.013,-0.205 z m -5.342,0.315 c 0,-0.072 -0.183,-0.75 -0.301,-1.115 -0.134,-0.413 -0.488,-1.144 -0.646,-1.333 -0.11,-0.131 -0.634,-0.572 -1.282,-1.077 -0.227,-0.178 -1.128,-0.727 -1.192,-0.727 -0.092,0 0.06,0.864 0.229,1.305 0.361,0.936 1.161,1.736 2.749,2.747 0.409,0.261 0.443,0.276 0.443,0.199 z m 2.588,0.06 c -0.111,-0.8 -0.351,-1.629 -0.623,-2.152 -0.268,-0.514 -0.948,-1.165 -1.835,-1.755 -0.27,-0.18 -0.339,-0.211 -0.368,-0.164 -0.058,0.091 -0.043,0.99 0.02,1.294 a 3.14,3.14 0 0 0 0.456,1.085 c 0.389,0.587 1.52,1.537 2.13,1.789 l 0.231,0.091 c 0.008,0.001 0.003,-0.083 -0.012,-0.186 z"
         id="path256" />
      <path
         d="m 81.068,124.895 0.141,-0.425 c 0.027,-0.108 0.183,-0.338 0.494,-0.728 0.657,-0.823 0.834,-1.217 0.932,-2.075 0.048,-0.417 0.025,-1.083 -0.044,-1.331 l -0.042,-0.149 -0.287,0.237 c -0.158,0.13 -0.341,0.313 -0.408,0.407 l -0.439,0.56 c -0.269,0.33 -0.333,0.439 -0.42,0.708 -0.118,0.366 -0.449,1.089 -0.499,1.089 -0.05,0 -0.038,0.452 0.026,0.765 0.082,0.397 0.37,1.207 0.429,1.207 0.01,0 0.063,-0.12 0.119,-0.266 z m -5.832,1.855 c -0.241,-0.953 -0.619,-1.822 -0.982,-2.263 -0.363,-0.441 -1.287,-1.12 -2.305,-1.698 -0.228,-0.129 -0.424,-0.226 -0.436,-0.214 -0.05,0.05 0.08,0.841 0.195,1.186 0.287,0.865 0.805,1.514 1.83,2.29 0.655,0.497 1.764,1.195 1.787,1.126 0.007,-0.02 -0.033,-0.213 -0.087,-0.428 z m 5.592,0.492 -0.278,-0.779 c -0.536,-1.363 -0.996,-1.929 -2.043,-2.515 -0.348,-0.194 -0.88,-0.426 -0.91,-0.396 -0.03,0.03 0.041,0.425 0.164,0.916 0.364,1.46 0.78,2.015 1.949,2.608 0.324,0.164 1.097,0.488 1.171,0.49 0.031,10e-4 0.013,-0.107 -0.053,-0.324 z m -2.952,0.414 -0.184,-0.977 c -0.217,-0.881 -0.547,-1.561 -0.958,-1.975 a 5.46,5.46 0 0 0 -1.647,-1.066 c -0.149,-0.052 -0.15,-0.052 -0.15,0.049 0,0.171 0.195,1.079 0.298,1.384 0.255,0.76 0.586,1.199 1.373,1.823 0.353,0.28 1.237,0.909 1.277,0.909 0.008,0 0.004,-0.067 -0.009,-0.148 z"
         id="path258" />
      <path
         d="m 81.817,127.825 c 0.058,-0.223 0.132,-0.333 0.617,-0.928 0.59,-0.723 0.781,-1.226 0.852,-2.249 0.023,-0.337 -0.026,-0.961 -0.088,-1.125 -0.043,-0.113 -1.094,0.823 -1.435,1.279 a 4.4,4.4 0 0 0 -0.607,1.213 c -0.117,0.45 -0.086,0.85 0.119,1.568 l 0.243,0.754 0.061,0.118 0.09,-0.205 a 3.42,3.42 0 0 0 0.148,-0.426 z m -5.836,2.495 c -0.15,-0.692 -0.459,-1.593 -0.713,-2.081 -0.308,-0.59 -0.774,-1.057 -1.652,-1.654 -0.427,-0.29 -1.47,-0.91 -1.532,-0.91 -0.062,0 10e-4,0.575 0.109,1.001 0.286,1.123 1.024,1.997 2.565,3.035 l 1.219,0.738 c 0.018,0 0.02,-0.058 0.005,-0.128 z"
         id="path260" />
      <path
         d="m 81.589,130.892 -0.104,-0.339 c -0.22,-0.719 -0.617,-1.588 -0.949,-2.082 -0.369,-0.547 -1.211,-1.15 -2.093,-1.498 l -0.201,-0.079 0.027,0.149 c 0.072,0.404 0.239,1.089 0.339,1.396 0.336,1.029 0.769,1.509 1.848,2.047 0.374,0.187 1.044,0.469 1.122,0.472 0.018,0.001 0.023,-0.03 0.011,-0.068 z m 1.058,0.002 0.107,-0.481 c 0.023,-0.102 0.17,-0.376 0.357,-0.665 0.357,-0.551 0.584,-1.01 0.689,-1.391 0.148,-0.538 0.073,-1.929 -0.129,-2.405 l -0.06,-0.14 -0.139,0.158 a 1.89,1.89 0 0 0 -0.22,0.316 c -0.13,0.254 -0.435,0.683 -0.756,1.065 -0.225,0.268 -0.314,0.409 -0.362,0.572 a 7.04,7.04 0 0 1 -0.218,0.582 c -0.18,0.425 -0.192,0.593 -0.08,1.136 0.1,0.486 0.426,1.267 0.646,1.547 0.063,0.081 0.093,0.028 0.164,-0.294 z m -3.646,0.432 c 0,-0.124 -0.346,-1.401 -0.493,-1.821 -0.309,-0.883 -0.565,-1.247 -1.145,-1.627 -0.416,-0.272 -1.405,-0.744 -1.561,-0.744 -0.11,0 0.061,0.851 0.275,1.371 0.231,0.559 0.468,0.861 1.19,1.515 0.368,0.333 1.657,1.373 1.704,1.375 0.016,10e-4 0.03,-0.03 0.029,-0.068 z m -2.336,2.269 c -0.191,-0.808 -0.44,-1.526 -0.716,-2.059 -0.321,-0.62 -0.856,-1.14 -1.82,-1.769 -0.49,-0.319 -1.368,-0.824 -1.393,-0.8 -0.037,0.037 0.082,0.801 0.174,1.117 0.261,0.901 0.806,1.619 1.83,2.412 0.553,0.428 1.836,1.266 1.939,1.266 0.014,0 0.008,-0.075 -0.014,-0.168 z"
         id="path262" />
      <path
         d="m 80.009,134.368 c -0.111,-0.443 -0.688,-1.665 -1.039,-2.204 a 3.87,3.87 0 0 0 -1.039,-1.15 l -0.861,-0.725 c -0.412,-0.368 -0.601,-0.512 -0.672,-0.512 -0.1,0 0.082,1.142 0.282,1.774 a 2.72,2.72 0 0 0 0.763,1.287 c 0.434,0.439 0.713,0.638 1.423,1.016 l 0.826,0.454 0.31,0.163 c 0.019,0 0.022,-0.046 0.008,-0.104 z m 2.543,-0.265 c -0.489,-1.433 -0.903,-2.115 -1.606,-2.646 -0.32,-0.241 -1.372,-0.812 -1.497,-0.812 -0.073,0 -0.069,0.043 0.048,0.597 0.206,0.976 0.525,1.743 0.89,2.143 0.242,0.265 0.654,0.549 1.179,0.811 0.413,0.207 1.042,0.469 1.133,0.472 0.03,0.001 -0.024,-0.207 -0.146,-0.565 z m -5.069,2.512 c -0.166,-0.632 -0.458,-1.388 -0.691,-1.787 -0.296,-0.507 -0.787,-0.96 -1.697,-1.566 l -1.338,-0.8 -0.095,-0.05 0.026,0.318 a 4.28,4.28 0 0 0 0.642,1.888 c 0.215,0.326 0.821,0.94 1.29,1.306 0.7,0.547 1.964,1.355 1.991,1.273 0.007,-0.021 -0.051,-0.283 -0.13,-0.583 z m 8.876,1.374 0.158,-0.027 -0.276,-0.11 c -0.711,-0.283 -1.233,-0.727 -1.513,-1.285 -0.09,-0.18 -0.164,-0.352 -0.164,-0.382 0,-0.03 -0.017,-0.055 -0.037,-0.055 -0.02,0 -0.09,-0.139 -0.156,-0.31 -0.267,-0.693 -0.387,-1.43 -0.32,-1.963 0.05,-0.394 0.149,-0.694 0.442,-1.334 a 6.47,6.47 0 0 0 0.29,-0.728 c 0.095,-0.365 0.072,-0.852 -0.088,-1.815 l -0.146,-0.884 -0.131,0.154 c -0.274,0.323 -0.764,1.039 -0.99,1.445 -0.352,0.634 -0.454,0.97 -0.474,1.557 -0.02,0.597 0.051,0.982 0.274,1.486 l 0.16,0.361 0.049,0.817 0.049,0.817 0.338,0.682 c 0.657,1.327 1.092,1.68 2.001,1.625 l 0.533,-0.05 z"
         id="path264" />
      <path
         d="m 83.578,138.95 c -1.033,-0.355 -1.55,-0.794 -2.047,-1.736 -0.395,-0.748 -0.482,-0.892 -0.786,-1.303 -0.296,-0.399 -0.963,-1.104 -1.231,-1.3 -0.372,-0.272 -2.494,-1.327 -2.552,-1.269 -0.008,0.008 0.021,0.168 0.065,0.356 0.16,0.686 0.675,1.494 1.387,2.176 0.512,0.491 0.713,0.623 1.1,0.726 0.502,0.133 1.118,0.385 1.392,0.569 0.159,0.107 0.381,0.327 0.641,0.635 0.798,0.946 1.412,1.309 2.109,1.249 l 0.179,-0.015 z"
         id="path266" />
      <path
         d="m 80.54,140.445 c 0.941,-0.122 1.912,-0.353 4.024,-0.956 l 1.736,-0.476 0.612,-0.177 a 1.58,1.58 0 0 1 0.395,-0.082 l 0.592,-0.059 c 1.06,-0.111 2.206,0.293 3.037,1.07 0.14,0.131 0.27,0.229 0.288,0.217 a 2.05,2.05 0 0 0 0.198,-0.255 l 0.164,-0.234 -0.436,-0.37 c -0.553,-0.469 -0.839,-0.669 -1.259,-0.881 -0.474,-0.24 -0.884,-0.359 -1.708,-0.495 -1.071,-0.177 -1.327,-0.273 -1.534,-0.572 -0.154,-0.222 -0.22,-0.535 -0.268,-1.272 l -0.096,-0.927 c -0.087,-0.456 -0.623,-2.042 -0.689,-2.042 -0.04,0 -0.389,0.632 -0.501,0.907 -0.401,0.985 -0.393,2.076 0.021,2.713 0.387,0.598 1.088,1.01 2.027,1.194 0.19,0.037 0.225,0.056 0.203,0.111 a 0.72,0.72 0 0 0 -0.036,0.124 c -0.036,0.22 -1.375,0.492 -1.956,0.399 -0.542,-0.087 -1.04,-0.449 -1.419,-1.031 a 13.52,13.52 0 0 1 -0.771,-1.55 c -0.08,-0.216 -0.356,-0.542 -0.575,-0.68 -0.306,-0.193 -0.61,-0.267 -1.12,-0.27 -0.26,-0.002 -0.521,0.01 -0.58,0.026 l -0.106,0.03 0.164,0.365 1.177,2.304 c 0.336,0.491 1.086,0.94 1.929,1.154 l 0.641,0.141 c 0.103,0.014 0.187,0.032 0.187,0.04 0,0.107 -0.106,0.233 -0.246,0.295 -0.216,0.095 -0.806,0.198 -1.134,0.197 -0.776,-0.001 -1.433,-0.426 -2.319,-1.502 -0.154,-0.186 -0.367,-0.396 -0.475,-0.465 -0.288,-0.185 -0.785,-0.374 -1.45,-0.551 -0.87,-0.232 -0.812,-0.225 -0.784,-0.095 0.074,0.334 0.292,0.903 0.537,1.396 0.214,0.432 0.324,0.608 0.484,0.767 0.398,0.398 0.973,0.601 1.798,0.636 0.271,0.012 0.615,0.004 0.763,-0.017 0.29,-0.04 0.279,-0.046 0.316,0.172 l 0.021,0.123 -0.363,0.046 -1.231,0.187 c -0.976,0.158 -1.26,0.161 -1.57,0.014 -0.426,-0.202 -0.735,-0.596 -1.225,-1.562 -0.144,-0.283 -0.349,-0.641 -0.457,-0.794 -0.177,-0.253 -0.241,-0.306 -0.698,-0.586 -0.554,-0.34 -1.083,-0.578 -1.961,-0.881 -0.429,-0.148 -0.58,-0.186 -0.58,-0.145 0,0.095 0.49,1.279 0.743,1.797 0.312,0.638 0.515,0.946 0.833,1.265 0.403,0.404 0.864,0.681 1.561,0.938 1.014,0.374 1.874,0.456 3.097,0.297 z"
         id="path268" />
    </g>
    <g
       class="K"
       id="g336"
       transform="translate(-66.072,-66.691)">
      <path
         id="use272"
         d="m 75.526,136.948 c 1.254,0.314 1.969,1.16 2.294,2.38 z" />
      <path
         id="use274"
         d="m 74.424,133.273 c 1.254,0.314 1.969,1.16 2.294,2.38 z" />
      <path
         id="use276"
         d="m 73.388,129.832 c 1.254,0.314 1.969,1.16 2.294,2.38 z" />
      <path
         id="use278"
         d="m 72.854,126.691 c 1.254,0.314 1.969,1.16 2.294,2.38 z" />
      <path
         id="use280"
         d="m 72.486,123.584 c 1.254,0.314 1.969,1.16 2.294,2.38 z" />
      <path
         id="use282"
         d="m 71.651,120.611 c 1.254,0.314 1.969,1.16 2.294,2.38 z" />
      <path
         id="use284"
         d="m 71.217,117.771 c 1.254,0.314 1.969,1.16 2.294,2.38 z" />
      <path
         d="m 71.072,115.119 c 1.228,0.404 1.88,1.299 2.116,2.54 z m 0.797,-4.319 c 0.908,0.92 1.079,2.014 0.723,3.226 z m 1.127,-3.31 c 0.755,1.049 0.755,2.157 0.215,3.299 z m 1.854,-2.561 c 0.472,1.203 0.197,2.276 -0.608,3.25 z"
         id="path286" />
      <path
         id="use288"
         d="m 78.479,102.36 c -0.235,1.271 -1.035,2.037 -2.233,2.438 z" />
      <path
         id="use290"
         d="m 81.519,99.922 c -0.235,1.271 -1.035,2.037 -2.233,2.438 z" />
      <path
         d="m 83.624,99.588 c -0.144,0.835 -0.632,1.339 -1.364,1.603 z m 3.138,-0.822 c -0.304,0.791 -0.882,1.189 -1.652,1.305 z m -7.797,38.306 c 1.287,0.117 2.124,0.843 2.633,1.999 z m -1.428,-3.04 c 1.29,0.084 2.145,0.788 2.683,1.931 z"
         id="path292" />
      <path
         id="use294"
         d="m 76.863,131.001 c 1.254,0.314 1.969,1.16 2.294,2.38 z" />
      <path
         id="use296"
         d="m 76.228,127.727 c 1.254,0.314 1.969,1.16 2.294,2.38 z" />
      <path
         d="m 75.346,124.075 c 1.229,0.401 1.883,1.295 2.121,2.536 z m -0.663,-3.279 c 1.227,0.407 1.877,1.303 2.11,2.545 z m -0.544,-4.079 c 1.196,0.49 1.782,1.43 1.929,2.685 z m -0.205,-4.044 c 1.131,0.626 1.604,1.628 1.603,2.891 z m 1.326,-3.845 c 0.757,1.047 0.76,2.155 0.222,3.299 z m 2.906,-3.04 c 0.589,1.047 0.59,2.155 0.173,3.299 z m -0.867,4.022 c 1.041,0.765 1.383,1.819 1.222,3.072 z"
         id="path298" />
      <path
         id="use300"
         d="m 76.629,113.046 c 1.177,0.535 1.728,1.495 1.828,2.755 z" />
      <path
         id="use302"
         d="m 77.097,116.721 c 1.177,0.535 1.728,1.495 1.828,2.755 z" />
      <path
         d="m 77.47,120.705 c 1.199,0.482 1.793,1.417 1.949,2.671 z"
         id="path304" />
      <path
         id="use306"
         d="m 78.119,124.242 c 1.239,0.368 1.916,1.245 2.188,2.479 z" />
      <path
         id="use308"
         d="m 78.821,127.583 c 1.239,0.368 1.916,1.245 2.188,2.479 z" />
      <path
         id="use310"
         d="m 79.89,131.158 c 1.239,0.368 1.916,1.245 2.188,2.479 z" />
      <path
         id="use312"
         d="m 81.393,135.1 c 1.239,0.368 1.916,1.245 2.188,2.479 z" />
      <path
         d="m 85.535,133.704 c -0.267,0.59 -0.559,1.156 -0.351,2.222 0.335,-0.701 0.505,-1.432 0.351,-2.222 z"
         id="path314" />
      <path
         id="use316"
         d="m 84.228,129.975 c -0.473,0.65 -0.969,1.262 -0.994,2.616 0.582,-0.767 0.975,-1.613 0.994,-2.616 z" />
      <path
         id="use318"
         d="m 83.209,126.768 c -0.473,0.65 -0.969,1.262 -0.994,2.616 0.582,-0.767 0.975,-1.613 0.994,-2.616 z" />
      <path
         id="use320"
         d="m 82.747,124.124 c -0.556,0.58 -1.131,1.119 -1.339,2.457 0.681,-0.681 1.184,-1.466 1.339,-2.457 z" />
      <path
         id="use322"
         d="m 82.195,120.934 c -0.556,0.58 -1.131,1.119 -1.339,2.457 0.681,-0.681 1.184,-1.466 1.339,-2.457 z" />
      <path
         id="use324"
         d="m 81.711,118.361 c -0.556,0.58 -1.131,1.119 -1.339,2.457 0.681,-0.681 1.184,-1.466 1.339,-2.457 z" />
      <path
         id="use326"
         d="m 81.26,115.688 c -0.556,0.58 -1.131,1.119 -1.339,2.457 0.681,-0.681 1.184,-1.466 1.339,-2.457 z" />
      <path
         id="use328"
         d="m 80.776,112.832 c -0.556,0.58 -1.131,1.119 -1.339,2.457 0.681,-0.681 1.184,-1.466 1.339,-2.457 z" />
      <path
         id="use330"
         d="m 80.487,110.198 c -0.485,0.422 -0.983,0.811 -1.216,1.838 0.592,-0.494 1.043,-1.077 1.216,-1.838 z" />
      <path
         id="use332"
         d="m 80.52,106.974 c -0.485,0.422 -0.983,0.811 -1.216,1.838 0.592,-0.494 1.043,-1.077 1.216,-1.838 z" />
      <path
         d="m 82.352,103.377 c -0.901,0.437 -1.812,0.827 -2.506,2.147 1.093,-0.505 1.991,-1.169 2.506,-2.147 z m 2.074,-2.075 c -0.594,0.139 -1.188,0.251 -1.767,0.898 0.718,-0.155 1.338,-0.419 1.767,-0.898 z"
         id="path334" />
    </g>
  </g>
  <g
     id="g1782">
    <g
       class="D"
       id="g358"
       transform="translate(-66.072,-66.691)">
      <g
         class="B E"
         id="g342">
        <path
           d="m 122.078,97.986 c -0.12,-0.001 -0.244,10e-4 -0.373,0.006 0.716,0.71 1.148,1.862 2.306,1.882 0.046,0.397 0.216,0.772 0.55,1.026 l 0.112,0.107 c -0.167,0.013 -0.352,0.003 -0.537,-0.005 0.432,1.015 1.377,0.918 2.519,0.975 0.123,0.263 0.298,0.493 0.513,0.673 l -0.201,-0.013 c 0.823,0.766 1.388,1.125 1.855,1.347 -0.093,0.224 -0.169,0.512 -0.212,0.897 -0.451,-0.28 -0.984,1.129 -0.143,1.931 l 0.059,0.018 c 0.427,0.586 0.887,0.776 1.326,1 -0.2,0.227 -0.351,0.632 -0.393,1.319 -0.398,-0.219 -0.79,0.8 -0.342,1.573 0.186,0.435 0.428,0.825 0.706,1.186 -0.387,0.034 -0.835,0.138 -1.362,0.331 0.467,0.686 0.963,1.221 1.488,1.607 -0.185,0.241 -0.368,0.575 -0.544,1.026 -0.455,-0.482 -1.549,1.045 -0.791,2.282 l 0.227,0.142 -0.134,-0.017 c 0.142,0.306 0.293,0.569 0.45,0.806 -0.428,-0.169 -0.922,-0.305 -1.492,-0.404 0.034,0.932 0.294,1.604 0.7,2.113 -0.333,0.22 -0.575,0.745 -0.556,1.79 -0.461,-0.182 -0.812,0.95 -0.31,1.759 h -0.083 l 0.234,0.2 c 0.081,0.091 0.172,0.178 0.282,0.252 l 0.015,0.002 c 0.516,0.434 1.067,0.828 1.926,0.964 0.646,0.102 1.068,0.396 1.445,0.728 -0.0405,0.18259 -0.0469,0.37108 -0.019,0.556 l 0.075,0.113 c 0.067,0.261 0.12,0.52 0.159,0.778 -0.919,-1.246 -2.654,-1.85 -5.193,-1.399 0.496,0.897 1.237,1.453 2.088,1.78 -0.131,0.118 -0.25,0.276 -0.35,0.482 -1.055,-0.714 -2.505,0.561 -1.704,2.138 l 0.244,0.211 c 0.427,0.556 0.569,1.144 0.567,1.748 -0.17255,0.0222 -0.34379,0.0536 -0.513,0.094 -0.298,-0.403 -1.627,-0.553 -1.976,0.7 l -0.015,-0.133 c -0.449,0.29 -1.264,1.266 -1.087,2.646 0.028,2.168 0.461,1.464 -3.543,3.119 -0.882,0.173 -1.652,0.795 -2.41,1.465 l 0.93739,1.14743 c 1.252,-0.914 1.95461,-1.96643 4.92161,-1.95143 2.845,0.014 6.188,2.82 9.787,0.856 l 0.189,0.018 c 0.4,-0.288 1.14,-1.534 0.189,-2.551 0.117,-0.23 0.124,-0.688 -0.029,-1.107 0.779,-0.463 1.506,-0.929 2.118,-1.703 l 0.143,-0.014 c 0.741,-0.423 1.34,-2.222 -0.017,-2.606 0.075,-0.342 -0.011,-1.022 -0.339,-1.488 0.887,-0.357 1.672,-1.054 2.277,-2.354 -0.853,-0.191 -1.606,-0.257 -2.265,-0.209 0.235,-0.234 0.421,-0.593 0.484,-0.959 1.132,-0.365 2.092,-1.149 2.684,-2.835 -0.432,-0.053 -0.834,-0.076 -1.212,-0.075 0.315,-0.511 0.555,-1.05 0.746,-1.607 l -0.209,0.108 c 0.302,-0.527 0.449,-1.287 0.198,-1.776 0.701,-0.544 1.181,-1.339 1.227,-2.629 -0.32978,0.0563 -0.65599,0.13177 -0.977,0.226 0.182,-0.297 0.326,-0.659 0.414,-1.146 l -0.137,-0.007 c 0.353,-0.792 0.317,-2.095 -0.747,-2.063 0.002,-0.251 -0.105,-0.645 -0.307,-0.975 0.468,-0.348 0.946,-0.919 1.445,-1.916 -0.501,-0.158 -0.979,-0.164 -1.417,0.118 0.437,-0.67 0.863,-1.343 0.685,-2.197 -0.479,0.075 -0.88,0.233 -1.226,0.45 0.087,-0.232 0.155,-0.49 0.189,-0.794 0.337,-0.435 0.504,-1.179 -0.16,-1.33 0.114,-0.384 -0.051,-1.438 -0.966,-1.089 0.082,-0.427 0.135,-0.846 0.044,-1.319 0.113,-0.644 -0.32,-1.862 -1.054,-1.43 -0.026,-0.03 -0.053,-0.055 -0.08,-0.083 0.511,-0.603 0.881,-1.276 1.081,-2.035 -0.354,0.134 -0.409,-0.098 -1.276,0.661 -0.181,-0.196 -0.362,-0.508 -0.543,-0.827 -0.119,0.133 -0.215,0.27 -0.297,0.411 0.0465,-0.33299 0.0185,-0.67216 -0.082,-0.993 -0.006,-0.559 -0.267,-1.162 -0.872,-0.995 -0.122,-0.537 -1.159,-1.853 -1.898,0.233 -0.257,-0.263 -0.764,0.359 -0.71,1.059 l -0.017,0.212 c -0.181,-1.037 -0.444,-1.865 -1.358,-2.023 -0.0293,0.0638 -0.0556,0.12884 -0.079,0.195 -0.451,-0.475 -1.168,-0.621 -1.795,-0.417 -0.431,-0.907 -0.754,-1.609 -1.258,-1.646 0.125,0.342 0.161,0.601 0.127,0.795 -0.193,-0.374 -0.41,-0.732 -0.89,-0.708 -0.333,-0.041 -0.702,0.059 -0.963,0.268 -0.426,-0.446 -1.161,-0.692 -2.269,-0.698 z m 8.188,29.714 c 0.44575,0.0304 0.89296,0.0327 1.339,0.007 0.0173,0.59568 -0.051,1.19077 -0.203,1.767 -0.068,-0.421 -0.371,-0.799 -1.153,-0.91 0.195,-0.28 0.168,-0.593 0.017,-0.864 z"
           class="C"
           id="path338"
           sodipodi:nodetypes="cccccccccccccccccccccccccccccccccccccccccccccccccccccccccccccccccccccccccccccccccccccccccccccccccccccccccc" />
        <path
           d="m 132.321,130.652 c 0.57,-2.424 2.387,-3.317 5.496,-2.623 -1.275,2.74 -3.344,2.819 -5.496,2.623 z m 2.116,-28.36 c -0.823,0.921 -0.694,2.042 -0.331,3.213 1.075,-0.837 1.83,-1.833 2.15,-3.047 -0.354,0.134 -0.409,-0.098 -1.276,0.661 -0.181,-0.196 -0.362,-0.508 -0.543,-0.827 z m 0.544,12.662 c 0.539,-2.275 1.122,-4.502 3.449,-4.866 0.179,0.854 -0.248,1.527 -0.685,2.197 0.438,-0.282 0.917,-0.276 1.417,-0.118 -1.491,2.978 -2.804,2.207 -4.181,2.788 z m -6.52,-2.717 c 1.357,1.996 2.958,2.737 4.819,2.15 -1.279,-1.091 -1.528,-3.359 -4.819,-2.15 z"
           class="C"
           id="path340" />
      </g>
      <path
         d="m 136.075,121.668 c -0.355,-1.948 0.758,-3.164 3.395,-3.62 -0.087,2.398 -1.664,3.097 -3.395,3.62 z"
         class="C E N"
         id="path344" />
      <path
         d="m 133.506,127.174 c 0.33,-2.468 2.05,-3.535 5.213,-3.148 -1,2.852 -3.052,3.133 -5.213,3.148 z"
         class="B C E"
         id="path346" />
      <path
         d="m 131.964,127.691 c -0.727,-1.746 -2.612,-2.692 -5.624,-2.157 1.134,2.051 3.549,2.314 5.624,2.157 z"
         stroke-width="0.225"
         class="C E"
         id="path348" />
      <g
         class="E"
         id="g356">
        <path
           d="m 121.704,97.992 c 2.06,-0.081 2.986,0.57 3.095,1.748 -1.788,0.6 -2.235,-0.896 -3.095,-1.748 z"
           class="B C"
           id="path352" />
        <path
           d="m 131.059,121.3 c 0.355,-1.948 -0.758,-3.164 -3.395,-3.62 0.087,2.398 1.664,3.097 3.395,3.62 z"
           class="C N"
           id="path354" />
      </g>
    </g>
    <g
       class="C"
       id="g380"
       transform="translate(-66.072,-66.691)">
      <path
         d="m 126.488,99.634 c -0.331,-0.451 -0.466,-1.253 -1.179,-1.219 -0.6,-0.073 -1.328,0.293 -1.298,0.973 -0.071,0.562 0.081,1.155 0.549,1.511 0.336,0.338 0.858,0.735 1.309,0.338 0.47,-0.303 0.744,-0.889 0.724,-1.438 a 0.32,0.32 0 0 0 -0.106,-0.166 z"
         class="B E G"
         id="path360" />
      <path
         d="m 125.307,99.138 c -0.479,-0.3 -0.949,0.359 -0.628,0.779 0.134,0.543 0.953,1.002 1.335,0.445 0.285,-0.533 -0.286,-1.006 -0.707,-1.225 z"
         class="D"
         id="path362" />
      <path
         d="m 124.135,101.002 c 0.722,0.033 1.473,0.1 0.969,-1.37 0.846,0.049 1.376,-0.194 0.969,-1.303 0.952,0.07 1.243,2.485 2.873,4.243 -2.057,-1.21 -4.11,0.079 -4.811,-1.57 z"
         class="B F H"
         id="path364" />
      <path
         d="m 129.347,100.685 c -0.429,-0.747 -1.382,-0.98 -2.15,-0.659 -0.85,0.196 -1.014,1.222 -0.58,1.876 0.304,0.73 1.015,1.231 1.818,1.156 0.872,0.069 1.499,-0.823 1.379,-1.637 -0.035,-0.293 -0.123,-0.677 -0.467,-0.737 z"
         class="B E G"
         id="path366" />
      <path
         d="m 128.328,100.618 c -0.597,-0.244 -1.548,0.261 -1.22,0.981 0.183,0.771 1.354,1.273 1.86,0.528 0.364,-0.532 0.018,-1.442 -0.64,-1.51 z"
         class="D"
         id="path368" />
      <path
         d="m 126.967,102.636 c 0.715,0.033 1.64,0.319 0.902,-1.403 1.045,0.531 1.057,-0.448 1.336,-1.036 1.839,0.317 1.046,3.349 2.238,5.345 -1.846,-1.864 -2.084,-0.678 -4.477,-2.907 z"
         class="B F H"
         id="path370" />
      <g
         transform="matrix(0.558224,-0.354249,0.282625,0.628232,-35.043402,100.97681)"
         id="g376">
        <path
           id="use372"
           d="m 231.813,130.669 c -0.247,-0.676 -1.982,0.12 -1.754,1.637 l 1.637,2.456 2.923,-0.284 c 0.741,-0.423 1.341,-2.222 -0.017,-2.606 0.167,-0.76 -0.453,-3.205 -2.79,-1.203 z"
           style="fill:#d3d3d3;stroke:#a1a1a1;stroke-width:0.265;" />
        <path
           id="use374"
           d="m 233.149,130.836 c -0.643,0.404 -1.373,0.55 -2.056,0.518 -0.774,0.736 0.484,1.81 1.248,1.193 0.678,-0.523 1.501,-0.336 1.619,0.547 0.958,0.352 -0.004,-0.89 -0.084,-1.314 -0.049,-0.49 -0.143,-0.863 -0.726,-0.944 z"
           style="fill:#ffffff;" />
      </g>
      <path
         d="m 130.583,101.971 c 0.488,0.011 0.828,0.58 1.604,-0.501 0.372,0.559 0.816,0.979 1.871,0.234 0.592,2.003 -1.507,2.507 -0.802,4.51 -0.486,-2.091 -2.964,-1.656 -2.673,-4.243 z"
         class="B F H"
         id="path378" />
    </g>
    <g
       transform="rotate(-4.96,-614.88748,2173.986)"
       class="C"
       id="g390">
      <g
         transform="matrix(0.569759,-0.485081,0.421259,0.647336,57.543375,132.61863)"
         id="g386">
        <path
           id="use382"
           d="m 231.813,130.669 c -0.247,-0.676 -1.982,0.12 -1.754,1.637 l 1.637,2.456 2.923,-0.284 c 0.741,-0.423 1.341,-2.222 -0.017,-2.606 0.167,-0.76 -0.453,-3.205 -2.79,-1.203 z"
           style="fill:#d3d3d3;stroke:#a1a1a1;stroke-width:0.265;" />
        <path
           id="use384"
           d="m 233.149,130.836 c -0.643,0.404 -1.373,0.55 -2.056,0.518 -0.774,0.736 0.484,1.81 1.248,1.193 0.678,-0.523 1.501,-0.336 1.619,0.547 0.958,0.352 -0.004,-0.89 -0.084,-1.314 -0.049,-0.49 -0.143,-0.863 -0.726,-0.944 z"
           style="fill:#ffffff;" />
      </g>
      <path
         d="m 244.107,106.047 c 1.163,-0.045 1.146,-0.726 1.57,-1.169 0.934,0.874 1.497,0.265 2.205,0.234 0.456,1.874 -1.17,2.706 -0.935,4.978 -0.459,-2.992 -1.985,-1.713 -2.84,-4.042 z"
         class="B F H"
         id="path388" />
    </g>
    <g
       class="C"
       id="g400"
       transform="translate(-66.072,-66.691)">
      <g
         transform="matrix(0.452531,-0.497026,0.39547,0.583358,-23.060472,144.24994)"
         id="g396">
        <path
           d="m 231.397,130.343 c -0.369,-0.476 -1.884,0.968 -1.338,1.963 l 1.637,2.456 2.923,-0.284 c 0.741,-0.423 1.341,-2.222 -0.017,-2.606 -0.229,-1.87 -2.143,-3.299 -3.206,-1.529 z"
           class="B E G"
           id="path392" />
        <path
           id="use394"
           d="m 233.149,130.836 c -0.643,0.404 -1.373,0.55 -2.056,0.518 -0.774,0.736 0.484,1.81 1.248,1.193 0.678,-0.523 1.501,-0.336 1.619,0.547 0.958,0.352 -0.004,-0.89 -0.084,-1.314 -0.049,-0.49 -0.143,-0.863 -0.726,-0.944 z"
           style="fill:#ffffff;" />
      </g>
      <path
         d="m 132.996,106.508 c 0.537,0.056 1.117,0.525 1.537,-0.535 0.488,0.666 1.092,0.243 1.704,-0.267 0.407,1.306 -0.338,2.141 -0.167,3.675 -1.89,-2.317 -2.326,-0.892 -3.074,-2.873 z"
         class="B F H"
         id="path398" />
    </g>
    <g
       transform="rotate(9.278,565.33927,-1045.0705)"
       class="C"
       id="g410">
      <g
         transform="matrix(0.401198,-0.631639,0.593558,0.494157,74.726369,191.00722)"
         id="g406">
        <path
           id="use402"
           d="m 231.813,130.669 c -0.247,-0.676 -1.982,0.12 -1.754,1.637 l 1.637,2.456 2.923,-0.284 c 0.741,-0.423 1.341,-2.222 -0.017,-2.606 0.167,-0.76 -0.453,-3.205 -2.79,-1.203 z"
           style="fill:#d3d3d3;stroke:#a1a1a1;stroke-width:0.265;" />
        <path
           id="use404"
           d="m 233.149,130.836 c -0.643,0.404 -1.373,0.55 -2.056,0.518 -0.774,0.736 0.484,1.81 1.248,1.193 0.678,-0.523 1.501,-0.336 1.619,0.547 0.958,0.352 -0.004,-0.89 -0.084,-1.314 -0.049,-0.49 -0.143,-0.863 -0.726,-0.944 z"
           style="fill:#ffffff;" />
      </g>
      <path
         d="m 245.043,110.49 c 1.188,-0.018 1.4,-0.708 1.604,-1.403 0.547,0.578 1.201,0.411 1.938,-0.334 0.635,1.92 0.292,3.449 0.368,5.145 -1.397,-1.032 -3.034,-1.797 -3.909,-3.408 z"
         class="B F H"
         id="path408" />
    </g>
    <g
       class="C"
       id="g486"
       transform="translate(-66.072,-66.691)">
      <g
         transform="matrix(0.621914,-0.033415,-0.046145,0.608629,-2.58496,35.991422)"
         id="g416">
        <path
           id="use412"
           d="m 231.813,130.669 c -0.247,-0.676 -1.982,0.12 -1.754,1.637 l 1.637,2.456 2.923,-0.284 c 0.741,-0.423 1.341,-2.222 -0.017,-2.606 0.167,-0.76 -0.453,-3.205 -2.79,-1.203 z"
           style="fill:#d3d3d3;stroke:#a1a1a1;stroke-width:0.265;" />
        <path
           id="use414"
           d="m 233.149,130.836 c -0.643,0.404 -1.373,0.55 -2.056,0.518 -0.774,0.736 0.484,1.81 1.248,1.193 0.678,-0.523 1.501,-0.336 1.619,0.547 0.958,0.352 -0.004,-0.89 -0.084,-1.314 -0.049,-0.49 -0.143,-0.863 -0.726,-0.944 z"
           style="fill:#ffffff;" />
      </g>
      <path
         d="m 134.519,108.574 c 0.377,0.326 0.702,0.757 1.503,0.234 -0.199,0.749 0.441,0.938 1.37,0.935 -0.233,2.063 -1.886,2.19 -2.238,4.343 0.387,-4.021 -1.635,-3.856 -0.635,-5.512 z"
         class="B F H"
         id="path418" />
      <g
         transform="matrix(0.686429,-0.297899,0.214233,0.742029,-54.106854,83.345517)"
         id="g424">
        <path
           id="use420"
           d="m 231.813,130.669 c -0.247,-0.676 -1.982,0.12 -1.754,1.637 l 1.637,2.456 2.923,-0.284 c 0.741,-0.423 1.341,-2.222 -0.017,-2.606 0.167,-0.76 -0.453,-3.205 -2.79,-1.203 z"
           style="fill:#d3d3d3;stroke:#a1a1a1;stroke-width:0.265;" />
        <path
           id="use422"
           d="m 233.149,130.836 c -0.643,0.404 -1.373,0.55 -2.056,0.518 -0.774,0.736 0.484,1.81 1.248,1.193 0.678,-0.523 1.501,-0.336 1.619,0.547 0.958,0.352 -0.004,-0.89 -0.084,-1.314 -0.049,-0.49 -0.143,-0.863 -0.726,-0.944 z"
           style="fill:#ffffff;" />
      </g>
      <path
         d="m 132.202,112.992 c 0.66,0.123 1.068,0.672 1.67,-0.668 0.857,1.394 1.597,0.949 2.038,0.601 -0.409,1.128 0.055,1.809 -2.639,4.109 -0.276,-1.831 -1.159,-2.19 -1.069,-4.042 z"
         class="B F H"
         id="path426" />
      <g
         transform="matrix(0.885848,-0.29536,0.185281,0.945828,-94.231577,59.621825)"
         id="g432">
        <path
           id="use428"
           d="m 231.813,130.669 c -0.247,-0.676 -1.982,0.12 -1.754,1.637 l 1.637,2.456 2.923,-0.284 c 0.741,-0.423 1.341,-2.222 -0.017,-2.606 0.167,-0.76 -0.453,-3.205 -2.79,-1.203 z"
           style="fill:#d3d3d3;stroke:#a1a1a1;stroke-width:0.265;" />
        <path
           id="use430"
           d="m 233.149,130.836 c -0.643,0.404 -1.373,0.55 -2.056,0.518 -0.774,0.736 0.484,1.81 1.248,1.193 0.678,-0.523 1.501,-0.336 1.619,0.547 0.958,0.352 -0.004,-0.89 -0.084,-1.314 -0.049,-0.49 -0.143,-0.863 -0.726,-0.944 z"
           style="fill:#ffffff;" />
      </g>
      <path
         d="m 133.746,116.058 c 1.406,1.153 1.905,0.324 2.489,-0.167 1.08,1.827 1.826,1.153 2.673,1.236 -0.423,2.329 -2.075,1.894 -3.374,4.343 0.078,-3.022 -2.222,-2.708 -1.787,-5.412 z"
         class="B F H"
         id="path434" />
      <g
         transform="matrix(0.80465,-0.473817,0.378688,0.886293,-106.60594,108.89737)"
         id="g440">
        <path
           id="use436"
           d="m 231.813,130.669 c -0.247,-0.676 -1.982,0.12 -1.754,1.637 l 1.637,2.456 2.923,-0.284 c 0.741,-0.423 1.341,-2.222 -0.017,-2.606 0.167,-0.76 -0.453,-3.205 -2.79,-1.203 z"
           style="fill:#d3d3d3;stroke:#a1a1a1;stroke-width:0.265;" />
        <path
           id="use438"
           d="m 233.149,130.836 c -0.643,0.404 -1.373,0.55 -2.056,0.518 -0.774,0.736 0.484,1.81 1.248,1.193 0.678,-0.523 1.501,-0.336 1.619,0.547 0.958,0.352 -0.004,-0.89 -0.084,-1.314 -0.049,-0.49 -0.143,-0.863 -0.726,-0.944 z"
           style="fill:#ffffff;" />
      </g>
      <path
         d="m 128.706,117.278 c 1.06,0.168 1.919,-0.29 1.971,-1.57 0.996,1.004 1.903,0.899 2.773,0.334 0.196,1.86 -1.218,3.427 -1.704,5.345 -0.478,-1.736 -2.005,-1.877 -3.04,-4.109 z"
         class="B F H"
         id="path442" />
      <g
         transform="matrix(0.97403,-0.19676,0.071031,1.026552,-100.37268,30.99456)"
         id="g448">
        <path
           id="use444"
           d="m 231.813,130.669 c -0.247,-0.676 -1.982,0.12 -1.754,1.637 l 1.637,2.456 2.923,-0.284 c 0.741,-0.423 1.341,-2.222 -0.017,-2.606 0.167,-0.76 -0.453,-3.205 -2.79,-1.203 z"
           style="fill:#d3d3d3;stroke:#a1a1a1;stroke-width:0.265;" />
        <path
           id="use446"
           d="m 233.149,130.836 c -0.643,0.404 -1.373,0.55 -2.056,0.518 -0.774,0.736 0.484,1.81 1.248,1.193 0.678,-0.523 1.501,-0.336 1.619,0.547 0.958,0.352 -0.004,-0.89 -0.084,-1.314 -0.049,-0.49 -0.143,-0.863 -0.726,-0.944 z"
           style="fill:#ffffff;" />
      </g>
      <path
         d="m 132.962,121.329 c 0.07,1.805 0.093,3.123 1.134,5.481 2.429,-1.093 3.548,-2.682 4.158,-4.465 -1.242,0.698 -2.342,0.933 -2.835,-0.803 -1.253,0.956 -1.885,0.442 -2.457,-0.213 z"
         class="B F H"
         id="path450" />
      <g
         transform="matrix(0.521802,-0.712982,0.634183,0.586638,-76.021135,210.20488)"
         id="g456">
        <path
           id="use452"
           d="m 231.813,130.669 c -0.247,-0.676 -1.982,0.12 -1.754,1.637 l 1.637,2.456 2.923,-0.284 c 0.741,-0.423 1.341,-2.222 -0.017,-2.606 0.167,-0.76 -0.453,-3.205 -2.79,-1.203 z"
           style="fill:#d3d3d3;stroke:#a1a1a1;stroke-width:0.265;" />
        <path
           id="use454"
           d="m 233.149,130.836 c -0.643,0.404 -1.373,0.55 -2.056,0.518 -0.774,0.736 0.484,1.81 1.248,1.193 0.678,-0.523 1.501,-0.336 1.619,0.547 0.958,0.352 -0.004,-0.89 -0.084,-1.314 -0.049,-0.49 -0.143,-0.863 -0.726,-0.944 z"
           style="fill:#ffffff;" />
      </g>
      <path
         d="m 127.415,123.34 c 0.96,0.01 1.936,0.041 1.606,-1.606 1.194,0.475 2.018,0.294 2.646,-0.236 -0.026,0.88 0.67,0.529 -0.236,2.858 -0.295,0.758 0.497,1.284 0.78,1.913 -0.737,-0.536 -1.183,-1.329 -2.339,-1.512 -1.156,-0.183 -1.753,-0.829 -2.457,-1.417 z"
         class="B F H"
         id="path458" />
      <path
         d="m 132.858,124.586 c -0.22,-0.601 -1.762,0.107 -1.56,1.456 l 1.456,2.184 2.6,-0.253 c 0.659,-0.377 1.192,-1.976 -0.015,-2.318 0.148,-0.676 -0.403,-2.85 -2.481,-1.07 z"
         stroke-width="0.236"
         class="E G"
         id="path460" />
      <path
         d="m 134.047,124.735 c -0.572,0.359 -1.221,0.489 -1.829,0.461 -0.689,0.655 0.43,1.61 1.11,1.061 0.603,-0.466 1.335,-0.299 1.44,0.487 0.852,0.313 -0.004,-0.792 -0.075,-1.168 -0.043,-0.436 -0.128,-0.768 -0.646,-0.84 z"
         class="D"
         id="path462" />
      <path
         d="m 131.343,126.029 c 0.394,1.437 0.382,2.81 -0.228,4.335 l 0.696,0.292 c 1.677,-2.259 2.078,-0.682 3.82,-2.932 -1.233,-0.276 -2.356,-0.632 -2.126,-1.97 -0.509,0.496 -1.182,0.677 -2.161,0.275 z"
         class="B F H"
         id="path464" />
      <path
         id="use466"
         d="m 133.089,130.669 c -0.247,-0.676 -1.982,0.12 -1.754,1.637 l 1.637,2.456 2.923,-0.284 c 0.741,-0.423 1.341,-2.222 -0.017,-2.606 0.167,-0.76 -0.453,-3.205 -2.79,-1.203 z"
         style="fill:#d3d3d3;stroke:#a1a1a1;stroke-width:0.265;" />
      <path
         id="use468"
         d="m 134.425,130.836 c -0.643,0.404 -1.373,0.55 -2.056,0.518 -0.774,0.736 0.484,1.81 1.248,1.193 0.678,-0.523 1.501,-0.336 1.619,0.547 0.958,0.352 -0.004,-0.89 -0.084,-1.314 -0.049,-0.49 -0.143,-0.863 -0.726,-0.944 z"
         style="fill:#ffffff;" />
      <path
         d="m 131.218,132.139 c 0.177,2.617 2.541,0.791 -0.301,6.047 1.889,-1.98 3.872,-2.08 5.178,-4.176 -1.417,0.424 -1.523,-0.376 -1.637,-1.169 -0.939,0.529 -1.868,1.112 -3.241,-0.702 z"
         class="B F H"
         id="path470" />
      <g
         class="B"
         id="g476">
        <path
           d="m 126.374,129.934 c -0.801,-1.577 0.649,-2.853 1.704,-2.138 0.808,-1.664 2.865,-0.227 2.172,0.768 1.916,0.273 0.982,2.139 0.668,2.339 l -2.339,0.935 z"
           class="E G"
           id="path472" />
        <path
           d="m 126.507,130.001 c 0.817,0.581 1.541,-0.143 2.272,-0.768 0.379,1.114 1.158,1.648 2.339,1.604 -1.579,2.12 -2.606,1.777 -4.41,4.276 0.073,-1.719 1.155,-3.551 -0.2,-5.112 z"
           class="F H"
           id="path474" />
      </g>
      <path
         d="m 128.879,128.03 c -0.47,0.524 -2.291,0.192 -1.673,1.182 0.847,0.571 1.26,-1.118 2.102,-0.605 0.063,0.587 0.649,1.547 1.314,0.99 -0.033,-0.747 -1.252,-0.679 -1.221,-1.51 -0.155,-0.103 -0.35,-0.086 -0.523,-0.057 z"
         class="D"
         id="path478" />
      <path
         d="m 124.639,132.955 c 0.224,-1.541 1.714,-1.398 2.032,-0.969 2.837,-0.667 2.851,1.579 2.268,2.221 0.814,1.265 -0.558,1.62 -0.756,1.89 l -3.402,-0.236 z m 4.607,3.048 c 0.427,-1.049 1.635,-1.003 2.268,-0.472 2.034,-0.916 2.45,1.18 2.15,1.772 0.951,1.017 0.211,2.264 -0.189,2.551 l -4.181,-0.402 z"
         class="B E G"
         id="path480" />
      <path
         d="m 127.923,132.542 c -0.801,0.107 -1.806,-0.34 -2.405,0.102 -0.454,0.821 0.616,1.139 1.123,0.652 1.065,0.054 0.315,2.252 1.638,1.784 0.218,-0.708 0.156,-1.571 0.089,-2.324 -0.108,-0.139 -0.28,-0.192 -0.445,-0.214 z m 4.536,3.283 c -0.764,0.315 -2.132,-0.413 -2.405,0.572 -0.097,1.015 0.964,1.156 1.675,0.943 0.372,0.48 0.735,2.295 1.541,1.237 0.018,-0.806 -0.255,-1.489 -0.112,-2.209 -0.185,-0.236 -0.462,-0.369 -0.699,-0.543 z"
         class="D"
         id="path482" />
      <path
         d="m 118.539,140.963 c 1.278,-0.921 1.963,-1.999 4.961,-1.984 2.893,0.014 6.3,2.919 9.969,0.756 -0.408,0.062 -2.203,-0.417 -1.748,-2.032 -0.676,0.174 -2.229,0.491 -2.504,-1.795 -1.639,1.422 -0.236,2.345 -1.828,2.871 -0.786,0.366 -2.484,-0.426 -3.605,-0.603 1.993,-2.787 2.365,0.308 4.63,-2.173 -1.381,-0.22 -1.692,-0.938 -1.465,-2.221 -1.006,0.582 -2.112,0.831 -2.268,-1.228 -0.449,0.29 -1.264,1.266 -1.087,2.646 0.028,2.168 0.461,1.463 -3.544,3.118 -0.882,0.173 -2.0305,1.1345 -2.409,1.469 z"
         class="B F H"
         id="path484"
         sodipodi:nodetypes="cccccccccccccc" />
    </g>
  </g>
  <g
     id="g1694"
     transform="translate(-5e-4)">
    <g
       stroke="#9f9f9f"
       class="O"
       id="g492"
       transform="translate(-66.072,-66.691)">
      <path
         d="m 120.197,142.581 -2.35,-3.295 c -4.049,1.933 -8.423,2.932 -12.847,2.932 -4.424,0 -8.798,-1 -12.846,-2.932 l -2.35,3.295 c 4.739,2.381 9.954,3.686 15.197,3.686 5.243,0 10.458,-1.305 15.197,-3.686 z"
         class="D I J M"
         id="path488" />
      <path
         d="m 87.501,145.713 3.705,-5.099 c -0.754,-0.835 -1.902,-1.892 -4.241,-1.427 l -5.527,5.652 c 3.835,-1.391 5.108,-0.405 6.063,0.874 z"
         fill="url(#D)"
         id="path490"
         style="fill:url(#D);fill-opacity:1;" />
    </g>
    <path
       d="m 26.11,76.202 1.029,-2.58 0.836,0.333 q 0.475,0.19 0.604,0.286 0.199,0.147 0.27,0.402 0.072,0.253 -0.05,0.561 -0.095,0.238 -0.246,0.365 -0.151,0.128 -0.322,0.167 -0.168,0.039 -0.318,0.014 -0.201,-0.037 -0.555,-0.179 l -0.34,-0.135 -0.388,0.973 z m 1.376,-1.936 -0.292,0.732 0.285,0.114 q 0.308,0.123 0.428,0.124 0.12,10e-4 0.212,-0.062 0.094,-0.062 0.14,-0.177 0.056,-0.141 0.01,-0.265 -0.046,-0.125 -0.164,-0.198 -0.086,-0.055 -0.368,-0.167 z m 1.656,3.086 0.784,-2.665 1.976,0.582 -0.133,0.451 -1.438,-0.423 -0.174,0.591 1.338,0.394 -0.132,0.449 -1.338,-0.394 -0.213,0.725 1.489,0.438 -0.132,0.449 z m 3.116,0.87 0.495,-2.733 0.826,0.15 0.158,1.954 0.828,-1.776 0.828,0.15 -0.495,2.733 -0.513,-0.093 0.39,-2.152 -0.932,2.053 -0.531,-0.096 -0.151,-2.25 -0.39,2.152 z m 6.345,0.773 -0.609,-0.039 -0.202,-0.645 -1.108,-0.07 -0.269,0.615 -0.594,-0.038 1.256,-2.704 0.592,0.038 z m -0.961,-1.162 -0.317,-1.053 -0.44,1.005 z m 1.929,1.146 -0.117,-2.753 0.56,-0.024 0.097,2.285 1.393,-0.059 0.02,0.468 z m 5.483,-0.544 -0.604,0.089 -0.332,-0.589 -1.099,0.161 -0.135,0.658 -0.589,0.086 0.667,-2.905 0.587,-0.086 z m -1.181,-0.937 -0.528,-0.964 -0.222,1.074 z m 2.117,0.732 -0.69,-2.691 0.529,-0.136 1.562,1.514 -0.461,-1.797 0.505,-0.129 0.69,2.691 -0.545,0.14 -1.535,-1.477 0.45,1.755 z m 4.185,-2.321 -0.163,-0.439 1.134,-0.42 0.384,1.038 q -0.106,0.221 -0.375,0.46 -0.268,0.237 -0.59,0.356 -0.409,0.151 -0.776,0.093 -0.368,-0.06 -0.638,-0.321 -0.271,-0.263 -0.41,-0.638 -0.151,-0.407 -0.097,-0.786 0.053,-0.379 0.32,-0.67 0.202,-0.223 0.576,-0.361 0.485,-0.18 0.833,-0.076 0.349,0.101 0.56,0.431 l -0.486,0.291 q -0.126,-0.171 -0.32,-0.225 -0.192,-0.056 -0.42,0.028 -0.345,0.128 -0.468,0.422 -0.122,0.294 0.038,0.724 0.172,0.464 0.464,0.62 0.292,0.155 0.626,0.031 0.165,-0.061 0.307,-0.186 0.143,-0.128 0.227,-0.264 l -0.122,-0.33 z"
       id="path494" />
    <path
       d="m 56.427,79.022 -3.705,-5.099 c 0.754,-0.835 1.902,-1.892 4.241,-1.427 l 5.527,5.652 c -3.835,-1.391 -5.108,-0.405 -6.063,0.874 z"
       fill="url(#E)"
       stroke="#9f9f9f"
       class="O"
       id="path496"
       style="fill:url(#E);fill-opacity:1;" />
  </g>
  <g
     id="g1172"
     style="opacity:0.998;"
     transform="translate(0.1832815)">
    <g
       id="g1138">
      <g
         id="g2054"
         transform="matrix(1.6042089,-0.14423192,0.18268275,1.2665571,-29.67906,-7.0824456)"
         style="opacity:0.998;">
        <path
           style="fill:#dab86a;fill-opacity:1;stroke:#000000;stroke-width:0.0538524;stroke-linecap:butt;stroke-linejoin:miter;stroke-miterlimit:4;stroke-dasharray:none;stroke-opacity:1;"
           d="m 35.425871,43.564819 c 0.0326,-0.02712 0.09919,-0.05163 0.113239,-0.176726 l 0.218225,0.02762 c -0.0094,0.09786 0.04336,0.137863 0.0787,0.194052 z"
           id="path1977"
           sodipodi:nodetypes="cccc" />
        <path
           style="fill:#d0a643;fill-opacity:1;stroke:#000000;stroke-width:0.0737704;stroke-linecap:butt;stroke-linejoin:miter;stroke-miterlimit:4;stroke-dasharray:none;stroke-opacity:1;"
           d="m 35.836034,43.609767 -0.410162,-0.04495 c -0.07238,0.103208 -0.103658,0.21434 -0.04066,0.343652 -0.0106,0.324307 -0.103863,0.708037 -0.01361,0.959848 0.06454,0.217942 0.113473,0.454633 0.264376,0.568827 0.127271,0.02841 0.212873,0.1005 0.404847,-0.01602 0.162584,-0.07823 0.132404,-0.199223 0.0765,-0.325928 -0.06191,-0.114785 -0.125143,-0.150367 -0.188383,-0.185799 -0.07064,-0.05035 -0.108458,-0.106769 -0.134713,-0.285089 -0.03193,-0.216901 -0.0053,-0.422741 -0.0033,-0.634189 0.06939,-0.164006 0.04611,-0.264566 0.04508,-0.380357 z"
           id="path1979"
           sodipodi:nodetypes="ccccccccscc" />
        <path
           id="path1981"
           style="fill:#dab96b;fill-opacity:1;stroke:none;stroke-width:0.0168958px;stroke-linecap:butt;stroke-linejoin:miter;stroke-opacity:1;"
           d="m 35.706878,45.322219 c 0.04842,0.01378 0.09612,0.02959 0.122072,0.03258 0.03505,0.004 0.06621,0.0033 0.144755,-0.04437 a 0.12950296,0.12950296 0 0 1 0.01102,-0.006 c 0.05496,-0.02645 0.04615,-0.0281 0.04753,-0.04149 0.0014,-0.01281 -0.009,-0.05674 -0.03196,-0.11057 -0.04735,-0.08593 -0.0731,-0.09559 -0.13468,-0.13009 a 0.12950296,0.12950296 0 0 1 -0.01183,-0.0074 c -0.04502,-0.03209 -0.09299,-0.0794 -0.124471,-0.141686 -0.03148,-0.06228 -0.04908,-0.133908 -0.06324,-0.229997 -0.03517,-0.238856 -0.0065,-0.452935 -0.0045,-0.654321 a 0.12950296,0.12950296 0 0 1 0.01018,-0.04918 c 0.03743,-0.08847 0.04031,-0.149216 0.03824,-0.213525 l -0.210483,-0.02308 c -0.02092,0.04562 -0.02756,0.08779 0.0021,0.148675 a 0.12950296,0.12950296 0 0 1 0.01298,0.06094 c -0.0113,0.345737 -0.0877,0.726054 -0.02109,0.911898 a 0.12950296,0.12950296 0 0 1 0.0023,0.0069 c 0.06473,0.218574 0.122907,0.414579 0.211087,0.490672 z" />
      </g>
      <path
         style="fill:#dab96b;fill-opacity:1;stroke:none;stroke-width:0.232313px;stroke-linecap:butt;stroke-linejoin:miter;stroke-opacity:1;"
         d="m 35.776584,34.596097 c 0.420797,1.65035 0.644757,3.506299 0.287539,5.79405 -0.116181,0.744082 -0.102335,1.475063 0.372767,2.209461 l -1.025965,0.123691 z"
         id="path1117"
         sodipodi:nodetypes="csccc" />
      <path
         style="fill:#d0a643;fill-opacity:1;stroke:none;stroke-width:0.285221;stroke-linecap:butt;stroke-linejoin:miter;stroke-miterlimit:4;stroke-dasharray:none;stroke-opacity:1;"
         d="m 34.124905,43.000941 c 0.335832,-0.906696 1.026204,-1.142647 0.976294,-2.792941 -0.100863,-3.335244 0.343818,-4.137057 0.675385,-5.611903 l -0.365659,8.127202 c -0.493435,2.5e-5 -0.906622,0.114703 -1.28602,0.277642 z"
         id="path1119"
         sodipodi:nodetypes="csccc" />
      <path
         id="path1126"
         style="fill:none;fill-opacity:1;stroke:#000000;stroke-width:0.4;stroke-linecap:butt;stroke-linejoin:miter;stroke-miterlimit:4;stroke-dasharray:none;stroke-opacity:1;"
         d="m 135.21875,130.75781 c -1.25317,5.57422 -2.93395,8.60335 -2.55273,21.20899 0.18863,6.23733 -2.42017,7.12976 -3.68946,10.55664 1.43395,-0.61583 2.99443,-1.04874 4.85938,-1.04883 l 3.8789,-0.46875 c -1.79566,-2.77568 -1.84926,-5.53733 -1.41015,-8.34961 1.35011,-8.64661 0.50447,-15.6609 -1.08594,-21.89844 z"
         transform="matrix(0.26458344,0,0,0.26458344,0,-6.7430618e-5)" />
    </g>
    <g
       id="g1154"
       transform="matrix(-1,0,0,1,77.488437,0)">
      <g
         id="g1146"
         transform="matrix(1.6042089,-0.14423192,0.18268275,1.2665571,-29.67906,-7.0824456)"
         style="opacity:0.998;">
        <path
           style="fill:#dab86a;fill-opacity:1;stroke:#000000;stroke-width:0.0538524;stroke-linecap:butt;stroke-linejoin:miter;stroke-miterlimit:4;stroke-dasharray:none;stroke-opacity:1;"
           d="m 35.425871,43.564819 c 0.0326,-0.02712 0.09919,-0.05163 0.113239,-0.176726 l 0.218225,0.02762 c -0.0094,0.09786 0.04336,0.137863 0.0787,0.194052 z"
           id="path1140"
           sodipodi:nodetypes="cccc" />
        <path
           style="fill:#d0a643;fill-opacity:1;stroke:#000000;stroke-width:0.0737704;stroke-linecap:butt;stroke-linejoin:miter;stroke-miterlimit:4;stroke-dasharray:none;stroke-opacity:1;"
           d="m 35.836034,43.609767 -0.410162,-0.04495 c -0.07238,0.103208 -0.103658,0.21434 -0.04066,0.343652 -0.0106,0.324307 -0.103863,0.708037 -0.01361,0.959848 0.06454,0.217942 0.113473,0.454633 0.264376,0.568827 0.127271,0.02841 0.212873,0.1005 0.404847,-0.01602 0.162584,-0.07823 0.132404,-0.199223 0.0765,-0.325928 -0.06191,-0.114785 -0.125143,-0.150367 -0.188383,-0.185799 -0.07064,-0.05035 -0.108458,-0.106769 -0.134713,-0.285089 -0.03193,-0.216901 -0.0053,-0.422741 -0.0033,-0.634189 0.06939,-0.164006 0.04611,-0.264566 0.04508,-0.380357 z"
           id="path1142"
           sodipodi:nodetypes="ccccccccscc" />
        <path
           id="path1144"
           style="fill:#dab96b;fill-opacity:1;stroke:none;stroke-width:0.0168958px;stroke-linecap:butt;stroke-linejoin:miter;stroke-opacity:1;"
           d="m 35.706878,45.322219 c 0.04842,0.01378 0.09612,0.02959 0.122072,0.03258 0.03505,0.004 0.06621,0.0033 0.144755,-0.04437 a 0.12950296,0.12950296 0 0 1 0.01102,-0.006 c 0.05496,-0.02645 0.04615,-0.0281 0.04753,-0.04149 0.0014,-0.01281 -0.009,-0.05674 -0.03196,-0.11057 -0.04735,-0.08593 -0.0731,-0.09559 -0.13468,-0.13009 a 0.12950296,0.12950296 0 0 1 -0.01183,-0.0074 c -0.04502,-0.03209 -0.09299,-0.0794 -0.124471,-0.141686 -0.03148,-0.06228 -0.04908,-0.133908 -0.06324,-0.229997 -0.03517,-0.238856 -0.0065,-0.452935 -0.0045,-0.654321 a 0.12950296,0.12950296 0 0 1 0.01018,-0.04918 c 0.03743,-0.08847 0.04031,-0.149216 0.03824,-0.213525 l -0.210483,-0.02308 c -0.02092,0.04562 -0.02756,0.08779 0.0021,0.148675 a 0.12950296,0.12950296 0 0 1 0.01298,0.06094 c -0.0113,0.345737 -0.0877,0.726054 -0.02109,0.911898 a 0.12950296,0.12950296 0 0 1 0.0023,0.0069 c 0.06473,0.218574 0.122907,0.414579 0.211087,0.490672 z" />
      </g>
      <path
         style="fill:#dab96b;fill-opacity:1;stroke:none;stroke-width:0.232313px;stroke-linecap:butt;stroke-linejoin:miter;stroke-opacity:1;"
         d="m 35.776584,34.596097 c 0.420797,1.65035 0.644757,3.506299 0.287539,5.79405 -0.116181,0.744082 -0.102335,1.475063 0.372767,2.209461 l -1.025965,0.123691 z"
         id="path1148"
         sodipodi:nodetypes="csccc" />
      <path
         style="fill:#d0a643;fill-opacity:1;stroke:none;stroke-width:0.285221;stroke-linecap:butt;stroke-linejoin:miter;stroke-miterlimit:4;stroke-dasharray:none;stroke-opacity:1;"
         d="m 34.124905,43.000941 c 0.335832,-0.906696 1.026204,-1.142647 0.976294,-2.792941 -0.100863,-3.335244 0.343818,-4.137057 0.675385,-5.611903 l -0.365659,8.127202 c -0.493435,2.5e-5 -0.906622,0.114703 -1.28602,0.277642 z"
         id="path1150"
         sodipodi:nodetypes="csccc" />
      <path
         id="path1152"
         style="fill:none;fill-opacity:1;stroke:#000000;stroke-width:0.4;stroke-linecap:butt;stroke-linejoin:miter;stroke-miterlimit:4;stroke-dasharray:none;stroke-opacity:1;"
         d="m 135.21875,130.75781 c -1.25317,5.57422 -2.93395,8.60335 -2.55273,21.20899 0.18863,6.23733 -2.42017,7.12976 -3.68946,10.55664 1.43395,-0.61583 2.99443,-1.04874 4.85938,-1.04883 l 3.8789,-0.46875 c -1.79566,-2.77568 -1.84926,-5.53733 -1.41015,-8.34961 1.35011,-8.64661 0.50447,-15.6609 -1.08594,-21.89844 z"
         transform="matrix(0.26458344,0,0,0.26458344,0,-6.7430618e-5)" />
    </g>
  </g>
</svg>
